<?xml version="1.0" encoding="utf-8"?>
<!-- Generator: Adobe Illustrator 23.0.3, SVG Export Plug-In . SVG Version: 6.00 Build 0)  -->
<svg version="1.1" xmlns="http://www.w3.org/2000/svg" xmlns:xlink="http://www.w3.org/1999/xlink" x="0px" y="0px"
	 viewBox="0 0 640 640" style="enable-background:new 0 0 640 640;" xml:space="preserve">
<style type="text/css">
	.st0{display:none;}
	.st1{display:inline;fill-rule:evenodd;clip-rule:evenodd;fill:#FFFFFF;}
	.st2{display:inline;}
	.st3{fill-rule:evenodd;clip-rule:evenodd;fill:url(#SVGID_1_);}
	.st4{fill-rule:evenodd;clip-rule:evenodd;fill:url(#SVGID_2_);}
	.st5{fill-rule:evenodd;clip-rule:evenodd;fill:url(#SVGID_3_);}
	.st6{display:inline;fill-rule:evenodd;clip-rule:evenodd;fill:#006837;}
	.st7{fill-rule:evenodd;clip-rule:evenodd;fill:url(#SVGID_4_);}
	.st8{fill-rule:evenodd;clip-rule:evenodd;fill:url(#SVGID_5_);}
	.st9{fill-rule:evenodd;clip-rule:evenodd;fill:url(#SVGID_6_);}
	.st10{display:inline;fill-rule:evenodd;clip-rule:evenodd;fill:#B20654;}
	.st11{fill-rule:evenodd;clip-rule:evenodd;fill:url(#SVGID_7_);}
	.st12{fill-rule:evenodd;clip-rule:evenodd;fill:url(#SVGID_8_);}
	.st13{fill-rule:evenodd;clip-rule:evenodd;fill:url(#SVGID_9_);}
	.st14{display:inline;fill-rule:evenodd;clip-rule:evenodd;fill:#65036D;}
	.st15{fill-rule:evenodd;clip-rule:evenodd;fill:url(#SVGID_10_);}
	.st16{fill-rule:evenodd;clip-rule:evenodd;fill:url(#SVGID_11_);}
	.st17{fill-rule:evenodd;clip-rule:evenodd;fill:url(#SVGID_12_);}
	.st18{fill-rule:evenodd;clip-rule:evenodd;fill:#035C8E;}
	.st19{fill:#F9F7F7;}
	.st20{display:inline;opacity:0.8;}
	.st21{fill:#EFE4E4;}
	.st22{fill:#FFFFFF;}
	.st23{display:inline;opacity:0.81;}
	.st24{opacity:0.81;}
</style>
<g id="qurano_text_font" class="st0">
	
		<text transform="matrix(0.9999 0.0101 -0.0101 0.9999 -5.1969 -52.9047)" style="display:inline;fill:#F9F7F7; font-family:'CooperBlack'; font-size:50.943px;">Qurano</text>
	
		<text transform="matrix(0.9999 0.0101 -0.0101 0.9999 45.7286 -23.5654)" style="display:inline;opacity:0.77;fill:#EFE4E4; font-family:'CooperBlack'; font-size:34.253px;">.com</text>
</g>
<g id="white_bg" class="st0">
	<rect x="0" class="st1" width="640" height="640"/>
</g>
<g id="white_bg_head" class="st0">
	<path class="st1" d="M222.2,158.75l-0.54,2.18l2.74-15.87l4.39-6.03c1.63-1.09,4.38-2.18,7.1-2.18l4.95,1.09l8.21-50.4
		c0.26-1.36,0.59-2.66,0.99-3.94l4.95-29.12c1.65-7.9,5.5-14.76,11.54-21.1c6.6-5.79,13.2-9.48,21.45-10.53
		c14.56-3.39,32.3-4.07,53.21-1.47c2.08-3.96,4.76-7.24,7.88-9.2c4.61-2.7,8.49-2.74,11.77-0.7c4,2.25,5.98,6.23,7.16,11.68
		c0.18,0.74,0.33,1.48,0.43,2.24c23.82,4.48,42.87,11.88,57.6,22.21l5.48,3.72c11.02,9.48,15.97,21.61,13.2,35.86l-8.31,43.14
		l-7.67,41.58h2.72c7.14,0.53,9.88,5.48,9.32,11.5l-2.74,15.86l-1.09-2.16c-1.1,7.67-3.84,13.69-8.21,18.62
		c-4.39,4.37-9.32,7.13-13.69,6.02c-5.47,10.95-12.6,21.92-23.02,32.32c9.74,2.51,19,5.4,27.82,8.68
		c-26.5,22.5-59.91,35.9-96.18,35.9c-38.57,0-73.85-15.14-101.09-40.25c11.44-3.74,23.55-6.83,36.33-9.26
		c-12.6-19.16-20.8-38.34-23.55-58.08c-4.93-2.18-8.2-5.46-10.95-12.04C221.66,173.53,221.66,166.98,222.2,158.75z"/>
	<path class="st1" d="M296.31,352.31l-169.97-31.94c20.07-23.27,45.35-41.52,76.14-54.49c4.08,4.37,8.41,8.5,12.93,12.4
		c29.18,25.11,66.96,40.25,108.25,40.25c38.85,0,74.59-13.4,102.99-35.92c4.55-3.61,8.93-7.45,13.07-11.51
		c26.19,12.41,47.66,28.79,64.61,49.27l-173.06,31.94H296.31z"/>
	<path class="st1" d="M557.46,443.63c2.74,8.21,1.65,15.88-1.1,22.99c-2.74,7.12-7.11,12.6-13.69,16.44
		c-6.02,3.83-11.51,4.39-18.07,3.83l-25.75,76.7L331.23,612.9c0,0.1-1.03,0.1-2.09,0.1h-11.65l-21.32-0.1l-167.11-49.31l-25.18-76.7
		c-6.57,0.56-12.06,0-18.64-3.83c-6.02-3.84-10.95-9.32-13.67-16.44c-2.76-7.11-3.3-14.78-0.56-22.99
		c1.63-7.14,5.49-11.51,11.51-14.25l2.19-1.1l-32.13-101.4l244.68,49.35h34.5l246.42-52.52l-34.42,104.57l1.09,1.1
		C550.9,432.12,555.83,436.49,557.46,443.63z"/>
</g>
<g id="Green" class="st0">
	<g class="st2">
		<linearGradient id="SVGID_1_" gradientUnits="userSpaceOnUse" x1="221.66" y1="191.125" x2="440.8406" y2="191.125">
			<stop  offset="0.0971" style="stop-color:#39B54A"/>
			<stop  offset="0.9592" style="stop-color:#009245"/>
		</linearGradient>
		<path class="st3" d="M431.45,171.91h-2.72l7.67-41.58l-1.03,5.36l-188.63-32.7l3.3-19.39c-0.4,1.28-0.73,2.58-0.99,3.94
			l-8.21,50.4l-4.95-1.09c-2.72,0-5.47,1.09-7.1,2.18l-4.39,6.03l-2.74,15.87l0.54-2.18c-0.54,8.23-0.54,14.78,2.2,20.27
			c2.75,6.58,6.02,9.86,10.95,12.04c2.75,19.74,10.95,38.92,23.55,58.08c-12.78,2.43-24.89,5.52-36.33,9.26
			c27.24,25.11,62.52,40.25,101.09,40.25c36.27,0,69.68-13.4,96.18-35.9c-8.82-3.28-18.08-6.17-27.82-8.68
			c10.42-10.4,17.55-21.37,23.02-32.32c4.37,1.11,9.3-1.65,13.69-6.02c4.37-4.93,7.11-10.95,8.21-18.62l1.09,2.16l2.74-15.86
			C441.33,177.39,438.59,172.44,431.45,171.91z M274.25,153.26c1.09-6.02,3.83-10.95,9.3-13.69c4.39-3.28,9.88-4.37,15.34-3.28
			c6.58,0.56,10.97,3.28,14.81,8.77c3.81,4.92,4.37,10.41,3.81,16.43c-1.09,8.21-6.56,13.69-14.78,16.44l1.09-2.75
			c0.56-7.11-2.19-11.5-9.3-12.6c-7.12-1.09-12.07,1.63-12.6,9.33v2.72C275.34,169.16,272.6,161.49,274.25,153.26z M353.09,246.17
			c-11.18,7.57-22.63,10.12-34.28,8.68c-13.92-1.34-23.43-6.91-31.94-15.59c-8.46-7.63-10.09-17.61-9.53-29.72l91.87,10.7
			C367.36,230.39,362.04,239.71,353.09,246.17z M391.49,174.63c-2.21,8.23-7.68,13.71-15.9,16.43l2.18-2.72
			c0.56-2.74,0-5.48-2.18-8.23l-7.12-4.93c-6.58-0.55-10.95,2.21-12.6,9.31l0.56,2.74c-7.14-4.37-9.86-12.05-8.23-20.81
			c1.09-5.49,3.83-10.39,8.23-13.69c5.46-3.84,10.95-4.93,16.41-3.84c6.58,1.09,10.97,4.37,14.79,9.32
			C391.49,162.58,392.02,168.07,391.49,174.63z"/>
		<linearGradient id="SVGID_2_" gradientUnits="userSpaceOnUse" x1="126.34" y1="309.095" x2="504.33" y2="309.095">
			<stop  offset="0.0971" style="stop-color:#39B54A"/>
			<stop  offset="0.9592" style="stop-color:#009245"/>
		</linearGradient>
		<path class="st4" d="M504.33,320.37l-173.06,31.94h-34.96l-169.97-31.94c20.07-23.27,45.35-41.52,76.14-54.49
			c4.08,4.37,8.41,8.5,12.93,12.4c29.18,25.11,66.96,40.25,108.25,40.25c38.85,0,74.59-13.4,102.99-35.92
			c4.55-3.61,8.93-7.45,13.07-11.51C465.91,283.51,487.38,299.89,504.33,320.37z"/>
		<linearGradient id="SVGID_3_" gradientUnits="userSpaceOnUse" x1="52.58" y1="468.355" x2="578.18" y2="468.355">
			<stop  offset="0.0971" style="stop-color:#39B54A"/>
			<stop  offset="0.9592" style="stop-color:#009245"/>
		</linearGradient>
		<path class="st5" d="M557.46,443.63c2.74,8.21,1.65,15.88-1.1,22.99c-2.74,7.12-7.11,12.6-13.69,16.44
			c-6.02,3.83-11.51,4.39-18.07,3.83l-25.75,76.7L331.23,612.9c0,0.1-1.03,0.1-2.09,0.1h-11.65l-21.32-0.1l-167.11-49.31
			l-25.18-76.7c-6.57,0.56-12.06,0-18.64-3.83c-6.02-3.84-10.95-9.32-13.67-16.44c-2.76-7.11-3.3-14.78-0.56-22.99
			c1.63-7.14,5.49-11.51,11.51-14.25l2.19-1.1l-32.13-101.4l244.68,49.35h34.5l246.42-52.52l-34.42,104.57l1.09,1.1
			C550.9,432.12,555.83,436.49,557.46,443.63z"/>
	</g>
	<path class="st6" d="M444.71,87.19l-8.31,43.14l-1.03,5.36l-188.63-32.7l3.3-19.39l4.95-29.12c1.65-7.9,5.5-14.76,11.54-21.1
		c6.6-5.79,13.2-9.48,21.45-10.53c14.56-3.39,32.3-4.07,53.21-1.47c2.08-3.96,4.76-7.24,7.88-9.2c4.61-2.7,8.49-2.74,11.77-0.7
		c4,2.25,5.98,6.23,7.16,11.68c0.18,0.74,0.33,1.48,0.43,2.24c23.82,4.48,42.87,11.88,57.6,22.21l5.48,3.72
		C442.53,60.81,447.48,72.94,444.71,87.19z"/>
</g>
<g id="Magenta" class="st0">
	<g class="st2">
		<linearGradient id="SVGID_4_" gradientUnits="userSpaceOnUse" x1="221.6595" y1="191.126" x2="440.8431" y2="191.126">
			<stop  offset="0.0971" style="stop-color:#ED1E79"/>
			<stop  offset="0.9592" style="stop-color:#D4145A"/>
		</linearGradient>
		<path class="st7" d="M431.45,171.91h-2.72l7.67-41.57l-1.03,5.36l-188.63-32.71l3.3-19.39c-0.39,1.28-0.72,2.58-0.99,3.94
			l-8.21,50.4l-4.95-1.09c-2.72,0-5.46,1.09-7.09,2.19l-4.39,6.02l-2.74,15.88l0.54-2.19c-0.54,8.23-0.54,14.79,2.21,20.27
			c2.74,6.58,6.02,9.86,10.95,12.04c2.74,19.74,10.95,38.91,23.55,58.07c-12.79,2.43-24.89,5.53-36.34,9.26
			c27.24,25.12,62.53,40.26,101.09,40.26c36.27,0,69.68-13.4,96.18-35.9c-8.83-3.28-18.09-6.17-27.82-8.68
			c10.41-10.39,17.55-21.36,23.01-32.32c4.37,1.11,9.3-1.65,13.69-6.02c4.37-4.93,7.11-10.95,8.21-18.62l1.09,2.17l2.74-15.86
			C441.33,177.39,438.59,172.44,431.45,171.91z M274.25,153.26c1.09-6.02,3.84-10.95,9.3-13.69c4.39-3.28,9.88-4.37,15.34-3.28
			c6.58,0.56,10.97,3.28,14.81,8.76c3.82,4.93,4.37,10.41,3.82,16.44c-1.09,8.21-6.56,13.69-14.79,16.44l1.09-2.74
			c0.56-7.11-2.19-11.51-9.3-12.6c-7.11-1.09-12.06,1.63-12.6,9.32v2.72C275.34,169.16,272.6,161.49,274.25,153.26z M353.09,246.17
			c-11.18,7.57-22.62,10.13-34.27,8.68c-13.92-1.34-23.43-6.91-31.94-15.59c-8.46-7.63-10.08-17.61-9.53-29.72l91.87,10.7
			C367.36,230.39,362.04,239.71,353.09,246.17z M391.49,174.63c-2.21,8.23-7.67,13.71-15.9,16.44l2.19-2.72
			c0.56-2.74,0-5.49-2.19-8.23l-7.11-4.93c-6.58-0.56-10.95,2.21-12.6,9.3l0.56,2.74c-7.14-4.37-9.86-12.04-8.23-20.81
			c1.09-5.49,3.84-10.39,8.23-13.69c5.46-3.84,10.95-4.93,16.42-3.84c6.58,1.09,10.97,4.37,14.79,9.32
			C391.49,162.58,392.02,168.07,391.49,174.63z"/>
		<linearGradient id="SVGID_5_" gradientUnits="userSpaceOnUse" x1="126.3425" y1="309.0969" x2="504.3318" y2="309.0969">
			<stop  offset="0.0971" style="stop-color:#ED1E79"/>
			<stop  offset="0.9592" style="stop-color:#D4145A"/>
		</linearGradient>
		<path class="st8" d="M504.33,320.37l-173.06,31.94h-34.96l-169.97-31.94c20.07-23.26,45.35-41.51,76.14-54.48
			c4.08,4.37,8.41,8.5,12.93,12.39c29.18,25.12,66.96,40.26,108.25,40.26c38.85,0,74.59-13.4,102.99-35.92
			c4.56-3.61,8.93-7.44,13.07-11.51C465.91,283.51,487.38,299.89,504.33,320.37z"/>
		<linearGradient id="SVGID_6_" gradientUnits="userSpaceOnUse" x1="52.5759" y1="468.3539" x2="578.1808" y2="468.3539">
			<stop  offset="0.0971" style="stop-color:#ED1E79"/>
			<stop  offset="0.9592" style="stop-color:#D4145A"/>
		</linearGradient>
		<path class="st9" d="M557.46,443.63c2.74,8.21,1.65,15.88-1.09,22.99c-2.74,7.11-7.11,12.6-13.69,16.44
			c-6.02,3.84-11.51,4.39-18.07,3.84l-25.76,76.69L331.23,612.9c0,0.1-1.03,0.1-2.08,0.1h-11.65l-21.32-0.1l-167.1-49.31
			l-25.18-76.69c-6.58,0.56-12.06,0-18.64-3.84c-6.02-3.84-10.95-9.32-13.67-16.44c-2.76-7.11-3.3-14.79-0.56-22.99
			c1.63-7.14,5.49-11.51,11.51-14.25l2.19-1.09l-32.13-101.4l244.69,49.35h34.5l246.42-52.53l-34.42,104.58l1.09,1.09
			C550.9,432.12,555.83,436.49,557.46,443.63z"/>
	</g>
	<path class="st10" d="M444.71,87.19l-8.31,43.14l-1.03,5.36l-188.63-32.71l3.3-19.39l4.95-29.12c1.65-7.9,5.51-14.77,11.55-21.1
		c6.6-5.79,13.2-9.49,21.45-10.54c14.56-3.38,32.29-4.06,53.21-1.46c2.08-3.96,4.76-7.24,7.88-9.2c4.62-2.7,8.5-2.74,11.78-0.7
		c4,2.25,5.98,6.23,7.16,11.67c0.19,0.74,0.33,1.48,0.43,2.25c23.82,4.48,42.87,11.88,57.6,22.21l5.49,3.71
		C442.53,60.81,447.48,72.94,444.71,87.19z"/>
</g>
<g id="Purple" class="st0">
	<g class="st2">
		<linearGradient id="SVGID_7_" gradientUnits="userSpaceOnUse" x1="221.6595" y1="191.126" x2="440.8431" y2="191.126">
			<stop  offset="0.0971" style="stop-color:#93278F"/>
			<stop  offset="0.9592" style="stop-color:#662D91"/>
		</linearGradient>
		<path class="st11" d="M431.45,171.91h-2.72l7.67-41.57l-1.03,5.36l-188.63-32.71l3.3-19.39c-0.39,1.28-0.72,2.58-0.99,3.94
			l-8.21,50.4l-4.95-1.09c-2.72,0-5.46,1.09-7.09,2.19l-4.39,6.02l-2.74,15.88l0.54-2.19c-0.54,8.23-0.54,14.79,2.21,20.27
			c2.74,6.58,6.02,9.86,10.95,12.04c2.74,19.74,10.95,38.91,23.55,58.07c-12.79,2.43-24.89,5.53-36.34,9.26
			c27.24,25.12,62.53,40.26,101.09,40.26c36.27,0,69.68-13.4,96.18-35.9c-8.83-3.28-18.09-6.17-27.82-8.68
			c10.41-10.39,17.55-21.36,23.01-32.32c4.37,1.11,9.3-1.65,13.69-6.02c4.37-4.93,7.11-10.95,8.21-18.62l1.09,2.17l2.74-15.86
			C441.33,177.39,438.59,172.44,431.45,171.91z M274.25,153.26c1.09-6.02,3.84-10.95,9.3-13.69c4.39-3.28,9.88-4.37,15.34-3.28
			c6.58,0.56,10.97,3.28,14.81,8.76c3.82,4.93,4.37,10.41,3.82,16.44c-1.09,8.21-6.56,13.69-14.79,16.44l1.09-2.74
			c0.56-7.11-2.19-11.51-9.3-12.6c-7.11-1.09-12.06,1.63-12.6,9.32v2.72C275.34,169.16,272.6,161.49,274.25,153.26z M353.09,246.17
			c-11.18,7.57-22.62,10.13-34.27,8.68c-13.92-1.34-23.43-6.91-31.94-15.59c-8.46-7.63-10.08-17.61-9.53-29.72l91.87,10.7
			C367.36,230.39,362.04,239.71,353.09,246.17z M391.49,174.63c-2.21,8.23-7.67,13.71-15.9,16.44l2.19-2.72
			c0.56-2.74,0-5.49-2.19-8.23l-7.11-4.93c-6.58-0.56-10.95,2.21-12.6,9.3l0.56,2.74c-7.14-4.37-9.86-12.04-8.23-20.81
			c1.09-5.49,3.84-10.39,8.23-13.69c5.46-3.84,10.95-4.93,16.42-3.84c6.58,1.09,10.97,4.37,14.79,9.32
			C391.49,162.58,392.02,168.07,391.49,174.63z"/>
		<linearGradient id="SVGID_8_" gradientUnits="userSpaceOnUse" x1="126.3425" y1="309.0969" x2="504.3318" y2="309.0969">
			<stop  offset="0.0971" style="stop-color:#93278F"/>
			<stop  offset="0.9592" style="stop-color:#662D91"/>
		</linearGradient>
		<path class="st12" d="M504.33,320.37l-173.06,31.94h-34.96l-169.97-31.94c20.07-23.26,45.35-41.51,76.14-54.48
			c4.08,4.37,8.41,8.5,12.93,12.39c29.18,25.12,66.96,40.26,108.25,40.26c38.85,0,74.59-13.4,102.99-35.92
			c4.56-3.61,8.93-7.44,13.07-11.51C465.91,283.51,487.38,299.89,504.33,320.37z"/>
		<linearGradient id="SVGID_9_" gradientUnits="userSpaceOnUse" x1="52.5759" y1="468.3539" x2="578.1808" y2="468.3539">
			<stop  offset="0.0971" style="stop-color:#93278F"/>
			<stop  offset="0.9592" style="stop-color:#662D91"/>
		</linearGradient>
		<path class="st13" d="M557.46,443.63c2.74,8.21,1.65,15.88-1.09,22.99c-2.74,7.11-7.11,12.6-13.69,16.44
			c-6.02,3.84-11.51,4.39-18.07,3.84l-25.76,76.69L331.23,612.9c0,0.1-1.03,0.1-2.08,0.1h-11.65l-21.32-0.1l-167.1-49.31
			l-25.18-76.69c-6.58,0.56-12.06,0-18.64-3.84c-6.02-3.84-10.95-9.32-13.67-16.44c-2.76-7.11-3.3-14.79-0.56-22.99
			c1.63-7.14,5.49-11.51,11.51-14.25l2.19-1.09l-32.13-101.4l244.69,49.35h34.5l246.42-52.53l-34.42,104.58l1.09,1.09
			C550.9,432.12,555.83,436.49,557.46,443.63z"/>
	</g>
	<path class="st14" d="M444.71,87.19l-8.31,43.14l-1.03,5.36l-188.63-32.71l3.3-19.39l4.95-29.12c1.65-7.9,5.51-14.77,11.55-21.1
		c6.6-5.79,13.2-9.49,21.45-10.54c14.56-3.38,32.29-4.06,53.21-1.46c2.08-3.96,4.76-7.24,7.88-9.2c4.62-2.7,8.5-2.74,11.78-0.7
		c4,2.25,5.98,6.23,7.16,11.67c0.19,0.74,0.33,1.48,0.43,2.25c23.82,4.48,42.87,11.88,57.6,22.21l5.49,3.71
		C442.53,60.81,447.48,72.94,444.71,87.19z"/>
</g>
<g id="Blue">
	<g>
		<linearGradient id="SVGID_10_" gradientUnits="userSpaceOnUse" x1="221.6595" y1="191.126" x2="440.8431" y2="191.126">
			<stop  offset="0.0971" style="stop-color:#29ABE2"/>
			<stop  offset="0.9592" style="stop-color:#0071BC"/>
		</linearGradient>
		<path class="st15" d="M431.45,171.91h-2.72l7.67-41.57l-1.03,5.36l-188.63-32.71l3.3-19.39c-0.39,1.28-0.72,2.58-0.99,3.94
			l-8.21,50.4l-4.95-1.09c-2.72,0-5.46,1.09-7.09,2.19l-4.39,6.02l-2.74,15.88l0.54-2.19c-0.54,8.23-0.54,14.79,2.21,20.27
			c2.74,6.58,6.02,9.86,10.95,12.04c2.74,19.74,10.95,38.91,23.55,58.07c-12.79,2.43-24.89,5.53-36.34,9.26
			c27.24,25.12,62.53,40.26,101.09,40.26c36.27,0,69.68-13.4,96.18-35.9c-8.83-3.28-18.09-6.17-27.82-8.68
			c10.41-10.39,17.55-21.36,23.01-32.32c4.37,1.11,9.3-1.65,13.69-6.02c4.37-4.93,7.11-10.95,8.21-18.62l1.09,2.17l2.74-15.86
			C441.33,177.39,438.59,172.44,431.45,171.91z M274.25,153.26c1.09-6.02,3.84-10.95,9.3-13.69c4.39-3.28,9.88-4.37,15.34-3.28
			c6.58,0.56,10.97,3.28,14.81,8.76c3.82,4.93,4.37,10.41,3.82,16.44c-1.09,8.21-6.56,13.69-14.79,16.44l1.09-2.74
			c0.56-7.11-2.19-11.51-9.3-12.6c-7.11-1.09-12.06,1.63-12.6,9.32v2.72C275.34,169.16,272.6,161.49,274.25,153.26z M353.09,246.17
			c-11.18,7.57-22.62,10.13-34.27,8.68c-13.92-1.34-23.43-6.91-31.94-15.59c-8.46-7.63-10.08-17.61-9.53-29.72l91.87,10.7
			C367.36,230.39,362.04,239.71,353.09,246.17z M391.49,174.63c-2.21,8.23-7.67,13.71-15.9,16.44l2.19-2.72
			c0.56-2.74,0-5.49-2.19-8.23l-7.11-4.93c-6.58-0.56-10.95,2.21-12.6,9.3l0.56,2.74c-7.14-4.37-9.86-12.04-8.23-20.81
			c1.09-5.49,3.84-10.39,8.23-13.69c5.46-3.84,10.95-4.93,16.42-3.84c6.58,1.09,10.97,4.37,14.79,9.32
			C391.49,162.58,392.02,168.07,391.49,174.63z"/>
		<linearGradient id="SVGID_11_" gradientUnits="userSpaceOnUse" x1="126.3425" y1="309.0969" x2="504.3318" y2="309.0969">
			<stop  offset="0.0971" style="stop-color:#29ABE2"/>
			<stop  offset="0.9592" style="stop-color:#0071BC"/>
		</linearGradient>
		<path class="st16" d="M504.33,320.37l-173.06,31.94h-34.96l-169.97-31.94c20.07-23.26,45.35-41.51,76.14-54.48
			c4.08,4.37,8.41,8.5,12.93,12.39c29.18,25.12,66.96,40.26,108.25,40.26c38.85,0,74.59-13.4,102.99-35.92
			c4.56-3.61,8.93-7.44,13.07-11.51C465.91,283.51,487.38,299.89,504.33,320.37z"/>
		<linearGradient id="SVGID_12_" gradientUnits="userSpaceOnUse" x1="52.5759" y1="468.3539" x2="578.1808" y2="468.3539">
			<stop  offset="0.0971" style="stop-color:#29ABE2"/>
			<stop  offset="0.9592" style="stop-color:#0071BC"/>
		</linearGradient>
		<path class="st17" d="M557.46,443.63c2.74,8.21,1.65,15.88-1.09,22.99c-2.74,7.11-7.11,12.6-13.69,16.44
			c-6.02,3.84-11.51,4.39-18.07,3.84l-25.76,76.69L331.23,612.9c0,0.1-1.03,0.1-2.08,0.1h-11.65l-21.32-0.1l-167.1-49.31
			l-25.18-76.69c-6.58,0.56-12.06,0-18.64-3.84c-6.02-3.84-10.95-9.32-13.67-16.44c-2.76-7.11-3.3-14.79-0.56-22.99
			c1.63-7.14,5.49-11.51,11.51-14.25l2.19-1.09l-32.13-101.4l244.69,49.35h34.5l246.42-52.53l-34.42,104.58l1.09,1.09
			C550.9,432.12,555.83,436.49,557.46,443.63z"/>
	</g>
	<path class="st18" d="M444.71,87.19l-8.31,43.14l-1.03,5.36l-188.63-32.71l3.3-19.39l4.95-29.12c1.65-7.9,5.51-14.77,11.55-21.1
		c6.6-5.79,13.2-9.49,21.45-10.54c14.56-3.38,32.29-4.06,53.21-1.46c2.08-3.96,4.76-7.24,7.88-9.2c4.62-2.7,8.5-2.74,11.78-0.7
		c4,2.25,5.98,6.23,7.16,11.67c0.19,0.74,0.33,1.48,0.43,2.25c23.82,4.48,42.87,11.88,57.6,22.21l5.49,3.71
		C442.53,60.81,447.48,72.94,444.71,87.19z"/>
</g>
<g id="Qurano.com" class="st0">
	<g class="st2">
		<path class="st19" d="M167.25,407.39c4.72,1.51,9.33,4.12,13.81,7.85c5.87,4.89,9.69,11.2,11.46,18.95
			c1.63,7.16,1.41,13.98-0.66,20.46c-2.32,7.26-6.54,13.15-12.68,17.65c-2.83,2.11-6.02,3.74-9.58,4.89
			c-3.56,1.14-6.99,1.66-10.29,1.54c-0.85-0.02-1.35,0.18-1.48,0.6c-0.37,1.17,0.74,2.66,3.34,4.46c2.6,1.8,5.76,3.29,9.48,4.48
			c2.28,0.73,4.59,0.96,6.94,0.71c0.48-0.06,0.89-0.04,1.22,0.06c0.52,0.16,0.91,0.74,1.18,1.72c0.26,0.98,0.26,1.88,0,2.69
			c-0.53,1.66-2.13,3.09-4.81,4.28c-2.72,1.21-5.94,1.84-9.67,1.87c-3.72,0.03-7.38-0.52-10.96-1.67c-4.2-1.34-8.5-3.59-12.9-6.75
			c-4.4-3.16-10.59-8.46-18.6-15.89c-1.4-1.35-3.06-2.62-4.97-3.82c-1.91-1.2-3.56-2.02-4.92-2.46c-0.46-0.15-1.03-0.27-1.71-0.38
			c-0.37-0.08-0.68-0.16-0.94-0.25c-0.62-0.2-1.05-0.63-1.28-1.3c-0.24-0.67-0.22-1.41,0.04-2.22c0.48-1.5,1.37-2.6,2.67-3.3
			c2.06-1.06,4.23-1.23,6.52-0.51l2.62,0.89c0.72,0.23,1.18,0.02,1.39-0.63c0.15-0.49-0.19-1.73-1.02-3.72
			c-1.92-4.45-3.11-8.42-3.58-11.91c-0.71-5.43-0.24-10.74,1.42-15.92c2.18-6.84,5.94-12.39,11.28-16.65
			c5.19-4.12,11.59-6.59,19.21-7.39C155.97,405.11,161.81,405.66,167.25,407.39z M157.9,420.02c-2.58-0.82-4.87-0.59-6.87,0.69
			c-2.01,1.28-3.5,3.45-4.47,6.51c-1.15,3.62-1.83,7.74-2.04,12.38c-0.2,4.64,0.09,9.16,0.87,13.57c1.05,5.93,3.56,9.54,7.54,10.8
			c2.57,0.82,4.98,0.6,7.23-0.65c2.25-1.26,3.82-3.27,4.7-6.04c1.16-3.65,1.84-8.01,2.02-13.09c0.18-5.07-0.17-9.69-1.07-13.86
			C164.66,424.93,162.02,421.48,157.9,420.02z"/>
		<path class="st19" d="M226.58,425.01l-0.28,27.8c-0.06,5.95,1.88,8.95,5.81,8.99c0.99,0.01,1.97-0.26,2.93-0.82
			c0.96-0.55,1.64-1.24,2.02-2.06c0.77-1.63,1.18-5.29,1.24-10.97c0.06-5.61-0.09-9.44-0.45-11.5c-0.13-0.86-0.36-1.48-0.7-1.88
			c-0.34-0.4-0.98-0.86-1.94-1.38c-1.94-1.05-2.9-2.35-2.88-3.93c0.02-2.12,1.71-3.57,5.07-4.36c6.38-1.51,12.66-2.23,18.85-2.17
			c3.45,0.03,5.16,1.88,5.12,5.54c0,0.38-0.03,1.15-0.07,2.31c-0.09,1.64-0.16,3.64-0.21,6l-0.23,22.62
			c-0.01,1.16,0.97,2.23,2.94,3.21c1.67,0.84,2.49,2.04,2.48,3.61c-0.03,3.08-3.7,5.42-11,7.02c-4.29,0.95-8.43,1.4-12.43,1.36
			c-1.64-0.02-2.76-0.22-3.35-0.6c-0.59-0.38-0.94-1.12-1.03-2.22c-0.15-2.12-0.79-3.19-1.92-3.2c-0.41,0-0.79,0.09-1.13,0.27
			c-0.34,0.18-1.39,0.87-3.15,2.04c-3.48,2.33-7.2,3.47-11.17,3.43c-6.57-0.07-11.18-2.01-13.84-5.83
			c-2.26-3.2-3.35-8.57-3.28-16.09c0.03-2.8,0.07-5.2,0.12-7.18c0.01-1.16,0.02-1.95,0.02-2.36c0.03-2.94-0.21-5.11-0.73-6.5
			c-0.52-1.39-1.47-2.49-2.87-3.29c-1.33-0.7-2.17-1.25-2.52-1.67c-0.35-0.41-0.53-0.98-0.52-1.7c0.03-2.6,2.01-4.31,5.95-5.12
			c6.72-1.4,13.43-2.07,20.13-2C225.59,422.43,226.59,423.3,226.58,425.01z"/>
		<path class="st19" d="M297.77,423.07c1.81,0.02,2.91,0.29,3.3,0.8c0.39,0.52,0.72,2.16,1,4.93c0.16,1.51,0.68,2.26,1.57,2.27
			c0.68,0.01,1.34-0.48,1.97-1.47c2.78-4.25,6.37-6.35,10.78-6.3c3.11,0.03,5.65,1.07,7.61,3.1c0.95,1,1.72,2.28,2.32,3.85
			c0.6,1.56,0.89,3.06,0.88,4.5c-0.02,1.61-0.41,3.25-1.18,4.94c-0.77,1.69-1.76,3.07-2.97,4.15c-2.21,2.06-4.9,3.08-8.09,3.05
			c-1.74-0.02-3.2-0.34-4.37-0.97c-1.17-0.63-2.71-1.89-4.61-3.79c-0.71-0.73-1.37-1.09-1.99-1.1c-0.96-0.01-1.59,0.52-1.89,1.6
			c-0.3,1.07-0.47,3.34-0.5,6.79c-0.05,5.16,0.1,8.69,0.46,10.57c0.23,1.03,0.55,1.74,0.98,2.14c0.42,0.4,1.33,0.81,2.73,1.23
			c3.07,0.95,4.59,2.58,4.57,4.87c-0.01,1.4-0.52,2.62-1.52,3.65c-1,1.03-2.33,1.71-3.97,2.04c-3.29,0.65-8.12,0.94-14.48,0.88
			c-6.05-0.06-10.65-0.64-13.78-1.73c-2.79-0.99-4.18-2.66-4.15-5.02c0.02-1.78,1.06-3.36,3.13-4.74c1-0.64,1.69-1.22,2.07-1.75
			c0.38-0.53,0.64-1.25,0.79-2.17c0.58-3.11,0.91-8.87,0.99-17.28c0.01-1.54-0.14-2.64-0.48-3.31c-0.33-0.67-1.01-1.22-2.03-1.64
			c-2.42-0.98-3.62-2.38-3.6-4.19c0.02-1.64,0.87-3.04,2.55-4.21c1.69-1.16,4.51-2.31,8.45-3.43
			C289.59,423.82,294.08,423.06,297.77,423.07z"/>
		<path class="st19" d="M358.25,423.32c5.95,0.06,10.98,1.62,15.09,4.67c2.17,1.63,3.69,3.48,4.54,5.56
			c0.85,2.08,1.26,4.93,1.22,8.56l-0.18,7.64c-0.05,5.3,0.29,8.74,1.03,10.32c0.37,0.76,0.72,1.24,1.06,1.45
			c0.34,0.21,1.06,0.4,2.15,0.59c1.09,0.18,1.63,0.91,1.62,2.17c-0.02,1.64-0.69,3.34-2.03,5.11c-1.34,1.76-3.05,3.24-5.15,4.41
			c-2.58,1.48-5.27,2.2-8.08,2.18c-3.59-0.04-6.42-1.29-8.48-3.78c-0.71-0.9-1.37-1.35-1.99-1.35c-0.68-0.01-1.6,0.41-2.73,1.25
			c-3.44,2.46-7.34,3.67-11.68,3.63c-4.48-0.05-8.1-1.04-10.85-2.98c-1.8-1.28-3.22-2.95-4.26-4.99c-1.04-2.05-1.55-4.18-1.52-6.4
			c0.04-3.56,1.5-6.69,4.4-9.39c4.53-4.26,11.25-6.37,20.18-6.31c1.98,0.02,3.23-0.16,3.75-0.55c0.52-0.39,0.78-1.3,0.8-2.73
			c0.04-3.63-0.31-6.25-1.05-7.89c-0.74-1.63-1.96-2.46-3.67-2.47c-1.03-0.01-1.94,0.29-2.75,0.9c-0.81,0.61-1.82,1.73-3.03,3.36
			c-3.09,4.31-6.29,6.45-9.61,6.42c-1.68-0.02-3.04-0.53-4.09-1.53c-1.05-1-1.57-2.31-1.55-3.92c0.02-1.64,0.69-3.28,2.02-4.9
			c1.34-1.63,3.14-3.05,5.41-4.26C345.03,424.82,351.52,423.25,358.25,423.32z M354.51,452.98c-1.5-0.02-2.82,0.59-3.94,1.81
			c-1.12,1.22-1.7,2.68-1.71,4.39c-0.02,1.64,0.36,2.97,1.14,3.99c0.78,1.02,1.81,1.53,3.11,1.54c2.73,0.03,4.13-2.27,4.17-6.88
			c0.02-1.88-0.16-3.15-0.55-3.8C356.35,453.38,355.61,453.03,354.51,452.98z"/>
		<path class="st19" d="M452.61,443.23l0.53,18.06c0.05,1.37,0.26,2.38,0.61,3.03c0.35,0.65,1.39,1.91,3.12,3.78
			c0.51,0.55,0.76,1.33,0.75,2.32c-0.02,2.26-1.39,3.82-4.1,4.68c-2.71,0.86-7.54,1.26-14.48,1.19c-4.72-0.05-8.05-0.49-9.99-1.33
			c-2.01-0.87-3-2.27-2.99-4.19c0.01-0.68,0.11-1.19,0.32-1.51c0.21-0.32,0.9-1.11,2.08-2.37c1.38-1.42,2.11-6.2,2.2-14.34
			c0.05-4.72-0.47-8.21-1.54-10.48c-0.87-1.82-2.5-2.74-4.9-2.77c-2.29-0.02-3.87,0.7-4.74,2.16c-0.87,1.46-1.33,4.12-1.36,7.99
			l-0.1,10.16c-0.02,2.02,0.09,3.41,0.34,4.16c0.25,0.75,1.08,2.22,2.5,4.38c0.37,0.62,0.55,1.32,0.55,2.11
			c-0.02,2.02-1.44,3.49-4.25,4.42c-2.82,0.93-7.2,1.36-13.15,1.3c-9.51-0.09-14.24-2.11-14.2-6.04c0.01-0.82,0.16-1.44,0.46-1.87
			c0.29-0.42,0.99-1.03,2.09-1.8c0.9-0.64,1.47-1.38,1.72-2.21c0.25-0.83,0.49-2.89,0.73-6.17c0.28-3.9,0.44-7.98,0.48-12.26
			c0.02-2.36-0.14-3.91-0.49-4.65c-0.35-0.74-1.38-1.65-3.08-2.72c-1.46-0.94-2.19-2.07-2.18-3.41c0.01-1.37,0.62-2.48,1.83-3.34
			c1.21-0.86,3.68-1.94,7.42-3.23c3.29-1.13,6.47-2.08,9.52-2.86c3.05-0.77,5.14-1.15,6.27-1.14c1.03,0.01,1.89,0.39,2.58,1.15
			c0.69,0.76,1.04,1.65,1.03,2.68c0,0.1-0.02,0.53-0.06,1.28c-0.04,0.27-0.06,0.51-0.06,0.72c-0.02,1.64,0.66,2.47,2.03,2.48
			c0.82,0.01,1.7-0.63,2.64-1.92c2.98-4.21,7.28-6.29,12.89-6.23c4.31,0.04,7.99,1.21,11.05,3.5c2.14,1.63,3.62,3.53,4.46,5.71
			C451.94,435.83,452.44,439.02,452.61,443.23z"/>
		<path class="st19" d="M498.99,425.36c6.17,1.05,11.31,3.58,15.41,7.57c2.95,2.86,5.12,6.3,6.51,10.32
			c1.43,4.2,1.79,8.39,1.08,12.57c-1.25,7.32-5.67,12.96-13.25,16.94c-7.24,3.8-14.99,4.99-23.25,3.58
			c-8.06-1.38-14.19-4.78-18.39-10.22c-4.1-5.28-5.53-11.49-4.31-18.64c1.36-7.96,5.43-13.96,12.23-18
			C482.14,425.22,490.12,423.85,498.99,425.36z M492.95,436.35c-1.48-0.25-2.76,0.09-3.85,1.03c-1.08,0.94-1.78,2.33-2.09,4.15
			c-0.34,2.02-0.44,4.84-0.27,8.46s0.54,6.87,1.12,9.74c0.57,2.94,2.04,4.61,4.4,5.02c3,0.51,4.82-1.14,5.48-4.95
			c0.48-2.83,0.65-6.12,0.51-9.85c-0.14-3.74-0.56-6.82-1.26-9.27C496.28,438.2,494.93,436.76,492.95,436.35z"/>
	</g>
	<g class="st20">
		<path class="st21" d="M237.45,514.15c2.38,0.02,4.44,0.87,6.18,2.54c1.76,1.7,2.63,3.87,2.61,6.53c-0.03,2.48-0.94,4.57-2.73,6.25
			c-1.77,1.64-3.85,2.44-6.23,2.42c-2.38-0.02-4.44-0.87-6.18-2.54c-1.76-1.72-2.63-3.86-2.6-6.42c0.03-2.61,0.94-4.73,2.73-6.36
			C232.99,514.96,235.07,514.15,237.45,514.15z"/>
		<path class="st21" d="M276.1,494.8c4.34,1.01,7.93,2.98,10.75,5.92c2.67,2.81,3.65,5.75,2.94,8.82c-0.49,2.12-1.62,3.67-3.39,4.66
			c-1.65,0.93-3.45,1.17-5.38,0.72c-2.03-0.47-3.38-1.55-4.07-3.25c-0.21-0.54-0.4-1.83-0.57-3.87c-0.19-2.2-1.21-3.52-3.06-3.95
			c-1.34-0.31-2.61,0.01-3.8,0.97c-1.19,0.96-1.98,2.3-2.37,4.01c-0.68,2.93-0.23,5.77,1.35,8.53c1.29,2.23,3.22,3.64,5.81,4.24
			c1.22,0.28,2.27,0.42,3.15,0.4c0.88-0.02,2.06-0.19,3.55-0.51c0.38-0.09,0.78-0.09,1.19,0.01c0.83,0.19,1.47,0.75,1.93,1.68
			c0.46,0.93,0.56,1.92,0.32,2.97c-0.25,1.1-0.97,2.15-2.16,3.15c-1.18,1-2.61,1.78-4.29,2.35c-3.63,1.22-7.6,1.33-11.92,0.33
			c-5.03-1.16-8.98-3.62-11.84-7.37c-3.69-4.76-4.86-10.01-3.54-15.75c1.28-5.52,4.44-9.59,9.51-12.23
			C265.04,494.07,270.34,493.47,276.1,494.8z"/>
		<path class="st21" d="M320.61,494.96c4.48,1,8.14,3.04,11,6.12c2.05,2.21,3.51,4.81,4.38,7.8c0.89,3.13,1,6.21,0.32,9.24
			c-1.19,5.31-4.63,9.28-10.33,11.9c-5.44,2.51-11.16,3.09-17.15,1.75c-5.85-1.31-10.21-4.03-13.08-8.17
			c-2.8-4.02-3.62-8.62-2.46-13.8c1.29-5.77,4.5-10.01,9.63-12.71C308.27,494.23,314.17,493.52,320.61,494.96z M315.78,502.78
			c-1.08-0.24-2.03-0.04-2.85,0.62c-0.83,0.65-1.39,1.63-1.68,2.95c-0.33,1.47-0.5,3.53-0.52,6.18c-0.01,2.66,0.14,5.05,0.46,7.17
			c0.31,2.17,1.32,3.45,3.03,3.84c2.17,0.49,3.57-0.65,4.19-3.42c0.46-2.05,0.71-4.45,0.74-7.19c0.03-2.74-0.15-5.02-0.57-6.83
			C318.14,504.26,317.21,503.15,315.78,502.78z"/>
		<path class="st21" d="M357.95,494.9c1.43,0.01,2.13,1.04,2.11,3.07c0,0.03,0,0.24-0.01,0.64c-0.03,0.4-0.04,0.73-0.05,0.98
			c-0.01,1.35,0.38,2.03,1.18,2.04c0.42,0,1.1-0.53,2.01-1.6c1.37-1.54,3.08-2.76,5.15-3.65c2.06-0.9,4.17-1.33,6.33-1.31
			c4.19,0.04,7.08,1.6,8.68,4.67c0.61,1.13,1.12,1.7,1.52,1.71c0.28,0,0.93-0.49,1.97-1.48c3.29-3.15,7-4.7,11.14-4.66
			c3.23,0.03,5.87,0.95,7.9,2.75c2.13,1.88,3.18,4.67,3.15,8.38c-0.01,0.8-0.05,2.16-0.11,4.06c-0.06,0.65-0.1,2.62-0.14,5.9
			c-0.02,2.11-0.05,3.58-0.08,4.43c-0.03,0.53-0.05,0.9-0.05,1.13c-0.02,1.6,0.47,3.01,1.46,4.23c0.59,0.74,0.96,1.22,1.1,1.46
			s0.2,0.56,0.2,0.96c-0.03,3.21-3.82,4.78-11.36,4.7c-3.33-0.03-6.02-0.46-8.05-1.28c-2.03-0.82-3.04-1.89-3.03-3.19
			c0.01-0.5,0.08-0.88,0.22-1.14c0.14-0.26,0.63-0.95,1.47-2.07c0.79-1.02,1.21-4.44,1.27-10.25c0.04-3.38-0.18-5.74-0.64-7.07
			c-0.54-1.59-1.63-2.39-3.28-2.4c-0.83-0.01-1.56,0.24-2.21,0.75c-0.64,0.51-1.07,1.15-1.28,1.93c-0.23,0.9-0.38,3.3-0.45,7.21
			c0.03,4.21,0.14,6.77,0.32,7.67c0.18,0.9,0.8,2.16,1.86,3.78c0.25,0.38,0.37,0.86,0.36,1.43c-0.03,2.98-3.94,4.44-11.74,4.36
			c-4.69-0.05-7.84-0.43-9.46-1.15c-1.3-0.56-1.94-1.55-1.92-2.95c0.01-0.63,0.09-1.06,0.26-1.31c0.16-0.25,0.73-0.82,1.69-1.71
			c0.56-0.52,0.92-1.01,1.09-1.48c0.17-0.46,0.3-1.31,0.38-2.54c0.2-2.75,0.32-5.54,0.35-8.34c0.05-4.91-1.18-7.38-3.69-7.4
			c-1.88-0.02-3,1.02-3.38,3.13c-0.32,1.98-0.5,4.81-0.54,8.49c-0.03,2.76,0.01,4.56,0.11,5.42c0.1,0.85,0.4,1.75,0.89,2.68
			c0.59,1.08,0.88,1.96,0.87,2.64c-0.02,1.63-1.17,2.75-3.45,3.35c-2.49,0.65-5.22,0.96-8.21,0.93c-3.86-0.04-6.69-0.37-8.48-1.01
			c-1.8-0.63-2.69-1.61-2.68-2.94c0-0.5,0.13-0.93,0.37-1.28c0.24-0.35,0.79-0.9,1.65-1.64c1.14-1.02,1.8-2.43,2-4.23
			c0.31-3.1,0.48-6.32,0.51-9.65c0.02-2.38-0.08-4.04-0.31-4.99c-0.23-0.94-0.73-1.71-1.5-2.29c-0.75-0.58-1.22-1.03-1.43-1.33
			c-0.21-0.3-0.31-0.72-0.31-1.24c0.02-1.68,1.34-2.99,3.99-3.94C350.03,496,354.79,494.89,357.95,494.9z"/>
	</g>
</g>
<g id="quranocom_x5F_source" class="st0">
	<g class="st2">
		<path class="st22" d="M1034.04,129.49c-7.24,0-12.01-4.54-12.19-11.88c15.92-3.59,28.51-15.57,28.51-36.73
			c0-25.72-18.74-37.88-39.18-37.88C990.72,43,972,55.15,972,80.88c0,20.71,12.03,32.61,27.46,36.5
			c1.08,12.92,11.28,21.33,28.74,21.33c7.18,0,13.51-1.1,17.52-3.51l-3.16-7C1039.88,129.27,1036.47,129.49,1034.04,129.49z
			 M1011.18,49.57c10.34,0,14.22,12.59,14.22,31.31c0,18.84-3.89,31.21-14.22,31.21c-10.36,0-14.24-12.37-14.24-31.21
			C996.94,62.16,1000.82,49.57,1011.18,49.57z"/>
		<path class="st22" d="M1125.14,111.1v5.58l-28.23,1.2l-0.49-8.62c-4.91,5.68-11.23,9.05-18.98,9.05
			c-10.71,0-18.01-5.25-17.77-19.71l0.43-26.51l-6.27-1.28v-4.93l27.62-3.83l2.19,1.2l-0.59,15.55v20.36c0,5.7,2.19,7.46,5.35,7.46
			c2.41,0,5.29-1.62,7.81-3.79l0.41-30.78l-5.8-1.24v-4.38l26.89-4.38l2.19,1.2l-0.35,15.55v31.23L1125.14,111.1z"/>
		<path class="st22" d="M1185.72,71.25c-0.36,5.92-4.38,9.31-9.25,9.31c-4,0-7.04-1.87-10.22-6.02l-0.61-0.81
			c-2.92,3-6.23,8.01-7.16,12.96v6.88c0,4.3,0.04,10.38,0.14,15.53l9.47,1.89v5.58h-38.69V111l5.78-1.16
			c0.12-5.29,0.18-11.76,0.18-16.26V86.7c0-6.04-0.12-7.79-0.37-12.15l-6.57-0.99v-4.5l26.89-7.56l2.19,1.2l0.93,12.59
			c3.26-9.35,10.14-13.79,16-13.79C1180.38,61.5,1184.88,64.56,1185.72,71.25z"/>
		<path class="st22" d="M1247.1,107.27c-1.46,1.97-2.31,2.41-3.27,2.41c-1.34,0-2.07-0.77-2.07-1.85V82.75
			c0-15.01-6.21-21.25-23-21.25c-19.59,0-29.69,6.57-29.69,15.98c1.22,3.95,4.5,5.92,9.25,5.92c5.23,0,9.98-3.39,9.98-12.27v-3.67
			c0.61-0.02,1.22-0.04,1.81-0.04c7.67,0,9.25,2.96,9.25,12.25v3.95c-2.8,0.65-5.43,1.28-7.42,1.76
			c-19.71,4.71-24.96,10.4-24.96,18.82c0,9,6.21,14.13,15.82,14.13c8.76,0,12.53-3.06,17.34-7.75c2.01,4.99,6.51,7.75,14.18,7.75
			c8.62,0,13.38-2.62,16.3-9.29L1247.1,107.27z M1207.92,100.8c0-5.9,4.5-9.41,7.91-10.83c0.99-0.43,2.19-0.85,3.53-1.26v18.19
			c-2.13,1.36-3.67,1.91-5.11,1.91C1210.73,108.81,1207.92,106.17,1207.92,100.8z"/>
		<path class="st22" d="M1325.04,111v5.58h-33.71V111l5.21-1.12c0.1-5.23,0.16-11.66,0.16-16.3V81.21c0-5.8-1.58-7.99-5.48-7.99
			c-2.09,0-5.03,1.05-7.91,2.88v17.48c0,4.58,0.06,11.21,0.18,16.53l4.58,0.89v5.58h-33.58V111l5.54-1.16
			c0.12-5.29,0.18-11.76,0.18-16.26V86.8c0-6.02-0.14-7.89-0.37-12.25l-6.57-0.99v-4.5l26.89-7.56l2.19,1.2l0.61,7.46
			c6.53-6.9,11.6-8.66,18.48-8.66c10.59,0,18.39,6.35,18.39,18.29v13.79c0,4.7,0.06,11.21,0.16,16.47L1325.04,111z"/>
		<path class="st22" d="M1327.78,89.53c0-16.31,13.39-28.03,32.12-28.03c18.74,0,32.12,11.39,32.12,28.03s-11.32,28.79-32.12,28.79
			C1338.98,118.33,1327.78,105.85,1327.78,89.53z M1367.69,89.86c0-15.87-2.43-22.33-7.79-22.33c-5.35,0-7.79,6.46-7.79,22.33
			c0,15.98,2.43,22.44,7.79,22.44C1365.26,112.31,1367.69,105.85,1367.69,89.86z"/>
	</g>
	<g class="st23">
		<path class="st22" d="M1104.57,171.16c0-3.84,3.06-7.04,6.97-7.04c3.91,0,6.97,3.2,6.97,7.04c0,3.77-3.06,6.83-6.97,6.83
			C1107.63,177.99,1104.57,174.93,1104.57,171.16z"/>
		<path class="st22" d="M1153.15,166.97l2.78,2.7c-3.06,5.76-8.38,8.33-15.15,8.33c-9.67,0-18.43-5.98-18.43-18.37
			c0-11.8,8.9-18.56,20.36-18.56c7.95,0,13.22,4.99,13.57,10.81c-0.93,2.86-2.56,4.12-5.41,4.12c-2.98,0-5.84-1.83-6.12-8.11
			l-0.14-2.98h-0.3c-3.26,0-7.75,3.33-7.75,13.16c0,7.89,3.63,12.23,9.33,12.23C1149.02,170.31,1151.18,168.89,1153.15,166.97z"/>
		<path class="st22" d="M1158.85,159.28c0-10.6,7.83-18.21,18.78-18.21s18.78,7.4,18.78,18.21c0,10.81-6.62,18.71-18.78,18.71
			C1165.39,177.99,1158.85,169.88,1158.85,159.28z M1182.18,159.5c0-10.31-1.42-14.51-4.55-14.51c-3.13,0-4.55,4.2-4.55,14.51
			c0,10.39,1.42,14.58,4.55,14.58C1180.76,174.08,1182.18,169.88,1182.18,159.5z"/>
		<path class="st22" d="M1261.49,173.23v3.63h-19.06v-3.63l2.66-0.73c0.08-3.39,0.1-7.58,0.1-10.57v-7.18
			c0-4.85-0.85-6.06-3.27-6.06c-1.58,0-3.14,0.65-4.56,1.72c0.1,0.79,0.16,1.64,0.16,2.54v8.98c0,3.04,0.02,7.28,0.1,10.69
			l2.68,0.61v3.63h-19.14v-3.63l3.02-0.75c0.08-3.39,0.1-7.56,0.1-10.55v-7.18c0-4.34-0.71-6.06-3.41-6.06
			c-1.44,0-3.02,0.73-4.4,1.76v11.48c0,2.96,0.02,7.26,0.08,10.71l2.68,0.59v3.63h-19.63v-3.63l3.26-0.75
			c0.06-3.43,0.1-7.63,0.1-10.55v-4.42c0-3.91,0-5.11-0.22-7.97l-3.85-0.63v-2.92l15.72-4.91l1.28,0.79l0.36,4.91
			c3.31-3.97,6.37-5.7,10.59-5.7c4.99,0,8.33,2.13,9.78,6.19c3.98-4.91,7.02-6.19,10.91-6.19c7.75,0,10.89,4.34,10.89,12.67v8.19
			c0,3.04,0.04,7.24,0.1,10.65L1261.49,173.23z"/>
	</g>
	<g class="st2">
		<g>
			<path class="st22" d="M1114.34-63.5c0,13.04-8.49,19.2-17.87,19.2s-17.87-6.16-17.87-19.2s8.55-19.2,17.87-19.2
				S1114.34-76.54,1114.34-63.5z M1096.47-47.68c4.72,0,6.49-6.27,6.49-15.82c0-9.49-1.78-15.87-6.49-15.87
				c-4.72,0-6.49,6.38-6.49,15.87C1089.97-53.95,1091.75-47.68,1096.47-47.68z M1091.08-46.18v-1h10.43
				c-0.89,5.05,1.44,8.32,5.38,8.32c1.11,0,2.66-0.11,3.88-0.67l1.44,3.55c-1.83,1.22-4.72,1.78-7.99,1.78
				C1095.8-34.19,1091.08-38.97,1091.08-46.18z"/>
			<path class="st22" d="M1130.16-54.23c0,2.89,1,3.77,2.44,3.77c1.94,0,4.55-2.55,5.77-4.72h2.5v4h-3.94l1.72-1.89
				c-2.44,5.22-6.11,8.55-11.04,8.55c-4.88,0-8.21-2.66-8.1-9.99l0.22-15.04l2,2.05l-4.88-1.11v-2.5l12.6-1.94l1,0.61l-0.28,7.88
				V-54.23z M1136.48-44.74l-0.33-6.55l0.22-18.31l2,2.11l-4.66-1.11v-2.22l12.26-2.22l1,0.61l-0.17,7.88v19.15l-4.61-4.27l7.16,1.5
				v2.83L1136.48-44.74z"/>
			<path class="st22" d="M1154.02-57.06v-3.5c0-3.05-0.06-3.94-0.17-6.16l-3-0.5v-2.28l12.26-3.83l1,0.61l0.44,6.77v8.88
				c0,3.44,0.06,9.16,0.17,11.65h-10.88C1153.96-47.9,1154.02-53.62,1154.02-57.06z M1151.3-48.23l5-1.11h7.66l5,1.11v2.83h-17.65
				V-48.23z M1159.74-64.33h4.55l-0.5,1.94c0.67-7.44,4.72-10.93,8.05-10.93c2.72,0,4.77,1.55,5.16,4.94c-0.17,3-2,4.72-4.22,4.72
				c-1.83,0-3.22-0.94-4.66-3.05l-1.67-2.44l2.05,1.33c-1.44,1.33-3.44,4.33-3.94,7.27l-4.83-0.56V-64.33z"/>
			<path class="st22" d="M1189.71-61.22c2.28-0.61,6.38-1.67,8.94-2.33v2.44c-2.66,0.72-5.55,1.44-7.16,2.22
				c-1.55,0.72-3.61,2.5-3.61,5.49c0,2.72,1.28,4.05,2.89,4.05c0.72,0,1.5-0.33,2.61-1.17l2.66-2l0.5,0.67l-2.61,2.89
				c-2.44,2.66-4.11,4.44-8.38,4.44c-4.38,0-7.21-2.61-7.21-7.16C1178.33-55.95,1180.71-58.83,1189.71-61.22z M1193.09-49.73v-14.37
				c0-4.72-0.72-6.22-4.22-6.22c-1.39,0-2.72,0.17-5.27,0.72l4.44-2.33v3.5c0,4.5-2.17,6.22-4.55,6.22c-2.17,0-3.66-1-4.22-3
				c0-4.77,4.61-8.1,13.54-8.1c7.66,0,10.49,3.16,10.49,10.77v12.71c0,0.55,0.33,0.94,0.94,0.94c0.44,0,0.83-0.22,1.5-1.22
				l1.61,0.89c-1.33,3.39-3.5,4.72-7.44,4.72C1195.87-44.52,1193.76-46.4,1193.09-49.73z"/>
			<path class="st22" d="M1210.63-45.4c0.11-2.5,0.17-8.21,0.17-11.65v-3.44c0-3.05-0.06-4-0.17-6.22l-3-0.5v-2.28l12.26-3.83
				l1,0.61l0.44,6.05v9.6c0,3.44,0.06,9.16,0.17,11.65H1210.63z M1223.5-48.23v2.83h-15.32v-2.83l4.77-1.11h5.44L1223.5-48.23z
				 M1237.99-64.05v6.99c0,3.55,0.06,9.16,0.17,11.65h-10.88c0.11-2.5,0.17-8.1,0.17-11.65v-6.27c0-2.94-0.72-4.05-2.5-4.05
				c-1.67,0-4.5,1.61-6.33,4.16h-2.17v-4h4.11l-2,1.78c4.38-6.44,7.05-7.88,11.04-7.88C1234.44-73.32,1237.99-70.1,1237.99-64.05z
				 M1234.99-49.34l5.38,1.11v2.83H1225v-2.83l4.61-1.11H1234.99z"/>
			<path class="st22" d="M1242.54-59.11c0-8.27,6.1-14.21,14.65-14.21c8.55,0,14.65,5.77,14.65,14.21s-5.16,14.6-14.65,14.6
				C1247.65-44.52,1242.54-50.84,1242.54-59.11z M1260.75-58.95c0-8.05-1.11-11.32-3.55-11.32c-2.44,0-3.55,3.27-3.55,11.32
				c0,8.1,1.11,11.38,3.55,11.38C1259.63-47.57,1260.75-50.84,1260.75-58.95z"/>
		</g>
	</g>
	<g class="st2">
		<g class="st24">
			<path class="st22" d="M1134.92-18.78c0-1.95,1.55-3.57,3.53-3.57c1.98,0,3.53,1.62,3.53,3.57c0,1.91-1.55,3.46-3.53,3.46
				C1136.47-15.31,1134.92-16.86,1134.92-18.78z"/>
			<path class="st22" d="M1151.87-25.41c0,4,1.84,6.2,4.72,6.2c1.59,0,2.67-0.72,3.68-1.69l1.41,1.37
				c-1.55,2.92-4.25,4.22-7.68,4.22c-4.9,0-9.34-3.03-9.34-9.3c0-5.99,4.51-9.41,10.31-9.41c4.04,0,6.71,2.52,6.89,5.48
				c-0.47,1.44-1.3,2.09-2.74,2.09c-1.51,0-2.96-0.94-3.1-4.11l-0.11-2.34l2.99,1.55c-1.08-0.47-1.91-0.72-3.1-0.72
				C1154.14-32.08,1151.87-30.39,1151.87-25.41z"/>
			<path class="st22" d="M1163.51-24.8c0-5.37,3.97-9.23,9.52-9.23s9.52,3.75,9.52,9.23c0,5.48-3.35,9.48-9.52,9.48
				C1166.83-15.31,1163.51-19.42,1163.51-24.8z M1175.34-24.69c0-5.23-0.72-7.36-2.31-7.36c-1.59,0-2.31,2.13-2.31,7.36
				c0,5.26,0.72,7.39,2.31,7.39C1174.62-17.3,1175.34-19.42,1175.34-24.69z"/>
			<path class="st22" d="M1185.76-15.89c0.07-1.62,0.11-5.34,0.11-7.57v-2.24c0-1.98,0-2.6-0.11-4.04l-1.95-0.32v-1.48l7.97-2.49
				l0.65,0.4l0.29,3.93v6.24c0,2.24,0.04,5.95,0.11,7.57H1185.76z M1194.13-17.73v1.84h-9.95v-1.84l3.1-0.72h3.53L1194.13-17.73z
				 M1203.39-28.01v4.54c0,2.31,0.04,5.95,0.11,7.57h-6.92c0.07-1.62,0.11-5.26,0.11-7.57v-3.64c0-2.2-0.36-3.06-1.73-3.06
				c-1.48,0-3.21,1.51-3.93,2.7h-1.55v-2.6h2.42l-0.9,1.15c2.38-3.61,4.18-5.12,7-5.12C1201.52-34.03,1203.39-31.94,1203.39-28.01z
				 M1201.59-18.45l3.21,0.72v1.84h-9.7v-1.84l2.88-0.72H1201.59z M1213.99-27.61v4.15c0,2.31,0.04,5.95,0.11,7.57h-6.92
				c0.07-1.62,0.11-5.26,0.11-7.57v-3.64c0-2.45-0.43-3.06-1.66-3.06c-1.51,0-2.96,1.15-4.07,2.7h-1.44v-2.85h2.78l-1.41,1.41
				c2.81-4.15,4.58-5.12,7-5.12C1212.41-34.03,1213.99-31.83,1213.99-27.61z M1212.22-18.45l3.32,0.72v1.84h-9.66v-1.84l2.63-0.72
				H1212.22z"/>
		</g>
	</g>
</g>
<g id="Qurano_x5F_source_x5F_serif">
	<g>
		<path class="st22" d="M194.26,490.65c-2.52,3.1-5.61,5.46-9.24,7.08c-3.64,1.62-7.62,2.43-11.95,2.43
			c-4.18,0-7.97-0.54-11.35-1.62c-3.39-1.08-6.79-2.87-10.22-5.35c-3.42-2.49-7.26-5.96-11.51-10.43
			c-6.56-1.08-12.4-3.42-17.51-7.03c-5.12-3.6-9.1-8.14-11.95-13.62c-2.85-5.48-4.27-11.5-4.27-18.05c0-7.5,1.82-14.23,5.46-20.22
			c3.64-5.98,8.65-10.67,15.03-14.05c6.38-3.39,13.57-5.08,21.57-5.08s15.19,1.69,21.57,5.08c6.38,3.39,11.39,8.07,15.03,14.05
			c3.64,5.98,5.46,12.72,5.46,20.22c0,8.51-2.32,16.02-6.97,22.54c-4.65,6.52-10.9,11.19-18.76,14c1.44,1.58,2.87,2.7,4.27,3.35
			c1.41,0.65,2.94,0.97,4.59,0.97c4.25,0,8.07-1.77,11.46-5.3L194.26,490.65z M130.58,455.35c1.8,3.28,4.25,5.82,7.35,7.62
			c3.1,1.8,6.56,2.7,10.38,2.7c3.82,0,7.28-0.9,10.38-2.7c3.1-1.8,5.55-4.34,7.35-7.62c1.8-3.28,2.7-7.04,2.7-11.3
			c0-4.25-0.9-8.02-2.7-11.3c-1.8-3.28-4.25-5.82-7.35-7.62c-3.1-1.8-6.56-2.7-10.38-2.7c-3.82,0-7.28,0.9-10.38,2.7
			c-3.1,1.8-5.55,4.34-7.35,7.62c-1.8,3.28-2.7,7.05-2.7,11.3C127.88,448.31,128.78,452.08,130.58,455.35z"/>
		<path class="st22" d="M262.27,423.3v58.6H242.7v-6.27c-2.16,2.38-4.76,4.18-7.78,5.41s-6.24,1.84-9.62,1.84
			c-7.57,0-13.61-2.23-18.11-6.7c-4.51-4.47-6.76-11.17-6.76-20.11V423.3h20.54v29.41c0,4.4,0.83,7.6,2.49,9.62
			c1.66,2.02,4.07,3.03,7.24,3.03c3.24,0,5.89-1.14,7.95-3.41s3.08-5.75,3.08-10.43V423.3H262.27z"/>
		<path class="st22" d="M303.19,424.33c3.35-1.33,7.19-2,11.51-2v18.49c-1.88-0.22-3.42-0.33-4.65-0.33c-4.4,0-7.84,1.19-10.32,3.57
			c-2.49,2.38-3.73,6.02-3.73,10.92v26.92h-20.54v-58.6h19.57v7.03C297.11,427.66,299.84,425.66,303.19,424.33z"/>
		<path class="st22" d="M369.95,428.97c5.12,4.43,7.68,11.23,7.68,20.38v32.54h-19.14v-7.57c-2.96,5.7-8.72,8.54-17.3,8.54
			c-4.54,0-8.47-0.79-11.79-2.38c-3.32-1.58-5.82-3.73-7.51-6.43c-1.69-2.7-2.54-5.78-2.54-9.24c0-5.55,2.12-9.86,6.38-12.92
			c4.25-3.06,10.81-4.59,19.68-4.59h11.68c-0.36-6.2-4.51-9.3-12.43-9.3c-2.81,0-5.66,0.45-8.54,1.35c-2.88,0.9-5.33,2.15-7.35,3.73
			l-6.92-13.95c3.24-2.16,7.19-3.84,11.84-5.03c4.65-1.19,9.32-1.78,14-1.78C357.41,422.33,364.83,424.54,369.95,428.97z
			 M353.19,468.17c1.8-1.15,3.1-2.85,3.89-5.08V458h-8.87c-5.98,0-8.97,1.98-8.97,5.95c0,1.8,0.68,3.24,2.05,4.33
			c1.37,1.08,3.24,1.62,5.62,1.62S351.39,469.32,353.19,468.17z"/>
		<path class="st22" d="M446.33,428.81c4.43,4.32,6.65,10.85,6.65,19.57v33.52h-20.54v-30.16c0-8-3.21-12-9.62-12
			c-3.53,0-6.36,1.15-8.49,3.46c-2.13,2.31-3.19,5.77-3.19,10.38v28.33H390.6v-58.6h19.57v6.38c2.31-2.38,5.04-4.2,8.22-5.46
			c3.17-1.26,6.63-1.89,10.38-1.89C436.04,422.33,441.9,424.49,446.33,428.81z"/>
		<path class="st22" d="M479.14,478.98c-5.05-2.59-8.99-6.2-11.84-10.81c-2.85-4.61-4.27-9.84-4.27-15.68
			c0-5.77,1.42-10.96,4.27-15.57c2.85-4.61,6.77-8.2,11.78-10.76c5.01-2.56,10.69-3.84,17.03-3.84c6.34,0,12.04,1.28,17.08,3.84
			c5.04,2.56,8.97,6.13,11.78,10.7c2.81,4.58,4.22,9.78,4.22,15.62s-1.41,11.07-4.22,15.68c-2.81,4.61-6.74,8.22-11.78,10.81
			c-5.05,2.59-10.74,3.89-17.08,3.89C489.84,482.87,484.19,481.57,479.14,478.98z M504.98,462.81c2.31-2.49,3.46-5.93,3.46-10.33
			c0-4.32-1.15-7.71-3.46-10.16c-2.31-2.45-5.26-3.68-8.87-3.68c-3.6,0-6.56,1.23-8.87,3.68c-2.31,2.45-3.46,5.84-3.46,10.16
			c0,4.4,1.15,7.84,3.46,10.33c2.31,2.49,5.26,3.73,8.87,3.73C499.72,466.54,502.67,465.3,504.98,462.81z"/>
	</g>
	<g class="st24">
		<path class="st22" d="M225.17,538.23c-1.12-1.1-1.69-2.49-1.69-4.18c0-1.73,0.55-3.14,1.65-4.21c1.1-1.08,2.47-1.62,4.11-1.62
			c1.64,0,3.01,0.54,4.11,1.62c1.1,1.08,1.65,2.48,1.65,4.21c0,1.69-0.56,3.08-1.69,4.18c-1.12,1.1-2.48,1.65-4.07,1.65
			C227.65,539.88,226.29,539.33,225.17,538.23z"/>
		<path class="st22" d="M249.61,537.42c-3.09-1.64-5.5-3.92-7.23-6.85c-1.73-2.93-2.6-6.24-2.6-9.94c0-3.7,0.87-7,2.6-9.9
			c1.73-2.9,4.13-5.17,7.2-6.81c3.07-1.64,6.57-2.46,10.5-2.46c3.7,0,6.94,0.75,9.73,2.25c2.79,1.5,4.88,3.65,6.29,6.46l-6.74,3.93
			c-1.08-1.73-2.42-3.03-4.04-3.9c-1.62-0.87-3.38-1.3-5.3-1.3c-3.28,0-5.99,1.07-8.15,3.2c-2.15,2.13-3.23,4.98-3.23,8.53
			c0,3.56,1.06,6.4,3.2,8.54c2.13,2.13,4.86,3.2,8.18,3.2c1.92,0,3.69-0.43,5.3-1.3c1.62-0.87,2.96-2.17,4.04-3.9l6.74,3.93
			c-1.45,2.81-3.57,4.98-6.36,6.5c-2.79,1.52-6.01,2.28-9.66,2.28C256.19,539.88,252.7,539.06,249.61,537.42z"/>
		<path class="st22" d="M289.72,537.42c-3.04-1.64-5.42-3.92-7.13-6.85c-1.71-2.93-2.56-6.24-2.56-9.94c0-3.7,0.85-7,2.56-9.9
			c1.71-2.9,4.08-5.17,7.13-6.81c3.04-1.64,6.46-2.46,10.26-2.46c3.84,0,7.28,0.82,10.33,2.46c3.04,1.64,5.42,3.91,7.13,6.81
			c1.71,2.9,2.56,6.21,2.56,9.9c0,3.7-0.85,7.01-2.56,9.94c-1.71,2.93-4.09,5.21-7.13,6.85c-3.04,1.64-6.49,2.46-10.33,2.46
			C296.18,539.88,292.76,539.06,289.72,537.42z M307.98,529.13c2.11-2.15,3.16-4.99,3.16-8.5c0-3.51-1.05-6.34-3.16-8.5
			c-2.11-2.15-4.78-3.23-8.01-3.23c-3.23,0-5.89,1.08-7.97,3.23c-2.08,2.15-3.13,4.99-3.13,8.5c0,3.51,1.04,6.35,3.13,8.5
			c2.08,2.15,4.74,3.23,7.97,3.23C303.21,532.36,305.88,531.29,307.98,529.13z"/>
		<path class="st22" d="M387,505.57c2.76,2.74,4.14,6.85,4.14,12.33v21.49h-8.78v-20.37c0-3.28-0.73-5.75-2.18-7.41
			c-1.45-1.66-3.54-2.49-6.25-2.49c-2.95,0-5.32,0.97-7.1,2.92c-1.78,1.94-2.67,4.72-2.67,8.32v19.04h-8.78v-20.37
			c0-3.28-0.73-5.75-2.18-7.41s-3.54-2.49-6.25-2.49c-3,0-5.38,0.96-7.13,2.88c-1.76,1.92-2.63,4.71-2.63,8.36v19.04h-8.78v-37.51
			h8.36v4.78c1.4-1.69,3.16-2.97,5.27-3.86s4.45-1.33,7.03-1.33c2.81,0,5.3,0.53,7.48,1.58c2.18,1.05,3.9,2.61,5.16,4.67
			c1.54-1.97,3.54-3.5,5.97-4.6c2.43-1.1,5.13-1.65,8.08-1.65C380.49,501.46,384.24,502.83,387,505.57z"/>
	</g>
</g>
</svg>
