<?xml version="1.0" encoding="utf-8"?>
<!-- Generator: Adobe Illustrator 23.0.3, SVG Export Plug-In . SVG Version: 6.00 Build 0)  -->
<svg version="1.1" xmlns="http://www.w3.org/2000/svg" xmlns:xlink="http://www.w3.org/1999/xlink" x="0px" y="0px"
	 viewBox="0 0 640 640" style="enable-background:new 0 0 640 640;" xml:space="preserve">
<style type="text/css">
	.st0{display:none;}
	.st1{display:inline;fill:#FFFFFF;}
	.st2{fill:url(#SVGID_1_);}
	.st3{fill:url(#SVGID_2_);}
	.st4{display:inline;fill:#0061A0;}
	.st5{display:inline;fill:#065C8C;}
	.st6{fill:#FFFFFF;}
	.st7{opacity:0.54;}
	.st8{opacity:0.37;fill:#FFFFFF;}
	.st9{opacity:0.48;}
</style>
<g id="Layer_6" class="st0">
	<rect y="-0.5" class="st1" width="640" height="641"/>
	<rect y="-0.5" class="st1" width="640" height="640"/>
</g>
<g id="Layer_1">
	<linearGradient id="SVGID_1_" gradientUnits="userSpaceOnUse" x1="1" y1="320.0322" x2="638.1152" y2="320.0322">
		<stop  offset="0.0419" style="stop-color:#0099FF"/>
		<stop  offset="0.1583" style="stop-color:#0095FD"/>
		<stop  offset="0.27" style="stop-color:#008AF6"/>
		<stop  offset="0.3794" style="stop-color:#0076EB"/>
		<stop  offset="0.3994" style="stop-color:#0072E9"/>
		<stop  offset="0.5672" style="stop-color:#0074E3"/>
		<stop  offset="0.7922" style="stop-color:#0079D2"/>
		<stop  offset="1" style="stop-color:#0080BC"/>
		<stop  offset="1" style="stop-color:#007CBC"/>
		<stop  offset="1" style="stop-color:#0071BC"/>
		<stop  offset="1" style="stop-color:#0173BD"/>
		<stop  offset="1" style="stop-color:#067AC2"/>
		<stop  offset="1" style="stop-color:#0E85C9"/>
		<stop  offset="1" style="stop-color:#1A96D4"/>
		<stop  offset="1" style="stop-color:#29ABE2"/>
	</linearGradient>
	<polygon class="st2" points="638.12,320.37 544.46,414.03 544.46,546.65 410.13,546.65 319.56,637.56 228.64,546.65 94.65,546.65 
		94.65,414.03 1,320.37 94.65,226.72 94.65,94.44 227.96,94.44 319.56,2.5 411.16,94.44 544.46,94.44 544.46,226.72 	"/>
	<linearGradient id="SVGID_2_" gradientUnits="userSpaceOnUse" x1="1" y1="320.0322" x2="638.1152" y2="320.0322">
		<stop  offset="0.0971" style="stop-color:#29ABE2"/>
		<stop  offset="0.9592" style="stop-color:#0071BC"/>
	</linearGradient>
	<path class="st3" d="M544.46,226.72V94.44h-133.3L319.56,2.5l-91.6,91.94H94.65v132.28L1,320.37l93.65,93.65v132.62h133.99
		l90.92,90.92l90.58-90.92h134.33V414.03l93.65-93.65L544.46,226.72z M533.87,379.85H463.8l47.85,47.85v86.13H426.2l-47.85-47.85
		v69.04l-58.79,59.13l-58.79-58.45v-71.09l-49.22,49.22h-83.74V427.7l47.85-47.85h-70.41l-59.13-59.47l59.81-59.82h69.73
		l-47.85-47.85v-85.45h83.74l49.22,49.56v-70.75l58.79-59.13l58.79,58.79v69.39l47.85-47.85h85.45v85.45l-47.85,47.85h70.07
		l59.47,59.47L533.87,379.85z M524.3,287.22h-86.82l-33.15,33.15l33.84,33.5h86.13l33.15-33.15L524.3,287.22z M378.35,379.85v45.46
		l61.87,61.87h45.8v-46.14l-61.18-61.18H378.35z M486.01,198.01v-43.75h-45.8l-61.87,61.52v44.78h44.78L486.01,198.01z
		 M363.31,320.37l33.15-33.15h-43.75v-44.78l-33.15,33.15l-32.81-33.15v44.78h-43.75l33.15,33.5l-33.15,33.15h43.75v45.12
		l32.81-33.15l33.15,33.15v-45.12h44.43L363.31,320.37z M286.74,440v82.03l32.81,33.15l33.15-33.15V440l-33.15-32.81L286.74,440z
		 M352.71,200.06v-82.37l-33.15-33.15l-32.81,33.15v82.37l32.81,33.15L352.71,200.06z M153.1,443.42v43.75h43.41l64.26-64.26v-43.07
		h-43.75L153.1,443.42z M260.77,260.56v-42.04l-64.26-64.26H153.1v43.07l63.57,63.23H260.77z M234.79,320.37l-32.81-33.15h-87.5
		l-33.15,33.15l33.5,33.5h86.48L234.79,320.37z M524.3,287.22h-86.82l-33.15,33.15l33.84,33.5h86.13l33.15-33.15L524.3,287.22z
		 M378.35,379.85v45.46l61.87,61.87h45.8v-46.14l-61.18-61.18H378.35z M486.01,198.01v-43.75h-45.8l-61.87,61.52v44.78h44.78
		L486.01,198.01z M363.31,320.37l33.15-33.15h-43.75v-44.78l-33.15,33.15l-32.81-33.15v44.78h-43.75l33.15,33.5l-33.15,33.15h43.75
		v45.12l32.81-33.15l33.15,33.15v-45.12h44.43L363.31,320.37z M286.74,440v82.03l32.81,33.15l33.15-33.15V440l-33.15-32.81
		L286.74,440z M352.71,200.06v-82.37l-33.15-33.15l-32.81,33.15v82.37l32.81,33.15L352.71,200.06z M153.1,443.42v43.75h43.41
		l64.26-64.26v-43.07h-43.75L153.1,443.42z M260.77,260.56v-42.04l-64.26-64.26H153.1v43.07l63.57,63.23H260.77z M234.79,320.37
		l-32.81-33.15h-87.5l-33.15,33.15l33.5,33.5h86.48L234.79,320.37z M440.21,154.26l-61.87,61.52v44.78h44.78l62.89-62.55v-43.75
		H440.21z M319.56,84.53l-32.81,33.15v82.37l32.81,33.15l33.15-33.15v-82.37L319.56,84.53z M524.3,287.22h-86.82l-33.15,33.15
		l33.84,33.5h86.13l33.15-33.15L524.3,287.22z M196.51,154.26H153.1v43.07l63.57,63.23h44.09v-42.04L196.51,154.26z M363.31,320.37
		l33.15-33.15h-43.75v-44.78l-33.15,33.15l-32.81-33.15v44.78h-43.75l33.15,33.5l-33.15,33.15h43.75v45.12l32.81-33.15l33.15,33.15
		v-45.12h44.43L363.31,320.37z M424.83,379.85h-46.48v45.46l61.87,61.87h45.8v-46.14L424.83,379.85z M201.98,287.22h-87.5
		l-33.15,33.15l33.5,33.5h86.48l33.5-33.5L201.98,287.22z M319.56,407.19L286.74,440v82.03l32.81,33.15l33.15-33.15V440
		L319.56,407.19z M217.02,379.85l-63.92,63.57v43.75h43.41l64.26-64.26v-43.07H217.02z"/>
</g>
<g id="Layer_1_copy" class="st0">
	<polygon class="st4" points="638.12,320.37 544.46,414.03 544.46,546.65 410.13,546.65 319.56,637.56 228.64,546.65 94.65,546.65 
		94.65,414.03 1,320.37 94.65,226.72 94.65,94.44 227.96,94.44 319.56,2.5 411.16,94.44 544.46,94.44 544.46,226.72 	"/>
	<path class="st5" d="M544.46,226.72V94.44h-133.3L319.56,2.5l-91.6,91.94H94.65v132.28L1,320.37l93.65,93.65v132.62h133.99
		l90.92,90.92l90.58-90.92h134.33V414.03l93.65-93.65L544.46,226.72z M533.87,379.85H463.8l47.85,47.85v86.13H426.2l-47.85-47.85
		v69.04l-58.79,59.13l-58.79-58.45v-71.09l-49.22,49.22h-83.74V427.7l47.85-47.85h-70.41l-59.13-59.47l59.81-59.82h69.73
		l-47.85-47.85v-85.45h83.74l49.22,49.56v-70.75l58.79-59.13l58.79,58.79v69.39l47.85-47.85h85.45v85.45l-47.85,47.85h70.07
		l59.47,59.47L533.87,379.85z M524.3,287.22h-86.82l-33.15,33.15l33.84,33.5h86.13l33.15-33.15L524.3,287.22z M378.35,379.85v45.46
		l61.87,61.87h45.8v-46.14l-61.18-61.18H378.35z M486.01,198.01v-43.75h-45.8l-61.87,61.52v44.78h44.78L486.01,198.01z
		 M363.31,320.37l33.15-33.15h-43.75v-44.78l-33.15,33.15l-32.81-33.15v44.78h-43.75l33.15,33.5l-33.15,33.15h43.75v45.12
		l32.81-33.15l33.15,33.15v-45.12h44.43L363.31,320.37z M286.74,440v82.03l32.81,33.15l33.15-33.15V440l-33.15-32.81L286.74,440z
		 M352.71,200.06v-82.37l-33.15-33.15l-32.81,33.15v82.37l32.81,33.15L352.71,200.06z M153.1,443.42v43.75h43.41l64.26-64.26v-43.07
		h-43.75L153.1,443.42z M260.77,260.56v-42.04l-64.26-64.26H153.1v43.07l63.57,63.23H260.77z M234.79,320.37l-32.81-33.15h-87.5
		l-33.15,33.15l33.5,33.5h86.48L234.79,320.37z M524.3,287.22h-86.82l-33.15,33.15l33.84,33.5h86.13l33.15-33.15L524.3,287.22z
		 M378.35,379.85v45.46l61.87,61.87h45.8v-46.14l-61.18-61.18H378.35z M486.01,198.01v-43.75h-45.8l-61.87,61.52v44.78h44.78
		L486.01,198.01z M363.31,320.37l33.15-33.15h-43.75v-44.78l-33.15,33.15l-32.81-33.15v44.78h-43.75l33.15,33.5l-33.15,33.15h43.75
		v45.12l32.81-33.15l33.15,33.15v-45.12h44.43L363.31,320.37z M286.74,440v82.03l32.81,33.15l33.15-33.15V440l-33.15-32.81
		L286.74,440z M352.71,200.06v-82.37l-33.15-33.15l-32.81,33.15v82.37l32.81,33.15L352.71,200.06z M153.1,443.42v43.75h43.41
		l64.26-64.26v-43.07h-43.75L153.1,443.42z M260.77,260.56v-42.04l-64.26-64.26H153.1v43.07l63.57,63.23H260.77z M234.79,320.37
		l-32.81-33.15h-87.5l-33.15,33.15l33.5,33.5h86.48L234.79,320.37z M440.21,154.26l-61.87,61.52v44.78h44.78l62.89-62.55v-43.75
		H440.21z M319.56,84.53l-32.81,33.15v82.37l32.81,33.15l33.15-33.15v-82.37L319.56,84.53z M524.3,287.22h-86.82l-33.15,33.15
		l33.84,33.5h86.13l33.15-33.15L524.3,287.22z M196.51,154.26H153.1v43.07l63.57,63.23h44.09v-42.04L196.51,154.26z M363.31,320.37
		l33.15-33.15h-43.75v-44.78l-33.15,33.15l-32.81-33.15v44.78h-43.75l33.15,33.5l-33.15,33.15h43.75v45.12l32.81-33.15l33.15,33.15
		v-45.12h44.43L363.31,320.37z M424.83,379.85h-46.48v45.46l61.87,61.87h45.8v-46.14L424.83,379.85z M201.98,287.22h-87.5
		l-33.15,33.15l33.5,33.5h86.48l33.5-33.5L201.98,287.22z M319.56,407.19L286.74,440v82.03l32.81,33.15l33.15-33.15V440
		L319.56,407.19z M217.02,379.85l-63.92,63.57v43.75h43.41l64.26-64.26v-43.07H217.02z"/>
</g>
<g id="Layer_4" class="st0">
	<path class="st1" d="M125.4,248.8c1.08-0.62,2.24-0.93,3.48-0.93c2.01,0,3.94,0.85,5.8,2.55s3.28,3.98,4.29,6.84
		c1,2.86,2.13,6.53,3.36,11.01c0.15,0.77,0.39,1.78,0.7,3.01c0.15-1.7,0.43-3.67,0.81-5.91c0.39-2.24,1.2-5.06,2.43-8.46
		c1.24-3.4,3.01-6.65,5.33-9.74c2.94-3.86,5.8-5.8,8.58-5.8c1.08,0,2.24,0.39,3.48,1.16c2.47,1.7,4.02,3.56,4.64,5.56
		c0.62,2.16,0.15,4.48-1.39,6.96c-1.55,2.47-4.02,4.95-7.42,7.42c-0.31-2.16-0.54-3.71-0.7-4.64c-0.62-3.25-1.24-4.87-1.85-4.87
		c-0.93,0-2.01,0.54-3.25,1.62c-1.39,1.55-2.4,2.63-3.01,3.25c-2.01,2.63-3.79,7.57-5.33,14.84c-0.46,2.32-1,5.72-1.62,10.2h-2.78
		c-1.24-6.65-2.55-11.75-3.94-15.3c-0.46-1.24-1.16-2.63-2.09-4.17c-0.93,0.31-1.93,0.62-3.01,0.93c-1.08,0.31-2.32,0.46-3.71,0.46
		c-1.7,0-2.94-0.31-3.71-0.93c-2.01-1.39-3.01-3.63-3.01-6.72C121.46,253.44,122.78,250.65,125.4,248.8z M363.52,244.86
		c0.93-0.77,2.16-1.16,3.71-1.16c2.01,0,3.94,0.93,5.8,2.78c1.85,1.85,3.25,4.1,4.17,6.72l4.17,13.45c0.15-1.85,0.43-3.9,0.81-6.14
		c0.39-2.24,1.28-5.22,2.67-8.93c0.93-2.94,2.63-5.87,5.1-8.81c3.09-3.86,6.11-5.8,9.04-5.8c0.93,0,1.85,0.23,2.78,0.7
		c2.47,1.85,4.02,4.02,4.64,6.49c0.46,1.85-0.08,3.71-1.62,5.56c-2.01,2.47-4.41,4.25-7.19,5.33c-0.31-1.39-0.54-2.4-0.7-3.01
		c-0.62-2.01-1.24-3.09-1.85-3.25c-1.08,0-2.16,0.46-3.25,1.39c-0.46,0.46-1.58,1.7-3.36,3.71c-1.78,2.01-3.36,6.8-4.75,14.38
		c-0.46,2.47-1,6.03-1.62,10.67h-2.78c-1.24-6.8-2.63-12.06-4.17-15.77c-0.46-1.24-1.16-2.55-2.09-3.94
		c-0.77,0.31-1.78,0.58-3.01,0.81c-1.24,0.23-2.32,0.35-3.25,0.35c-1.85,0-3.25-0.39-4.17-1.16c-2.01-1.39-3.01-3.63-3.01-6.72
		C359.58,248.8,360.9,246.25,363.52,244.86z M308.34,342.01c4.33-3.09,7.11-5.26,8.35-6.49c2.63-2.63,3.79-4.87,3.48-6.72
		c-0.46-3.4-5.1-7.81-13.91-13.22c-6.65-4.02-15.15-8.5-25.5-13.45c-4.95-2.32-12.13-7.65-21.56-16
		c-3.09-2.63-7.26-6.49-12.52-11.59l-10.9-9.51c-1.08-3.09-1.62-6.34-1.62-9.74c0-4.02,0.62-7.84,1.85-11.48
		c1.24-3.63,2.63-6.22,4.17-7.77c2.94-2.63,9.51-7.57,19.71-14.84c11.13-7.88,21.18-14.68,30.14-20.4
		c17.93-10.82,30.64-17.81,38.14-20.98c7.5-3.17,13.87-4.75,19.13-4.75c1.39,0.15,2.4,0.23,3.01,0.23c3.4,0,6.07,1.12,8,3.36
		c1.93,2.24,2.9,5.06,2.9,8.46c0,0.93-0.15,2.13-0.46,3.59c-0.31,1.47-3.56,6.99-9.74,16.58c-3.25,5.1-5.45,9.58-6.61,13.45
		s-2.2,9.58-3.13,17.16c-0.15,2.32-0.46,5.49-0.93,9.51h-2.09c0-1.08-0.04-2.4-0.12-3.94c-0.08-1.55-0.12-3.56-0.12-6.03
		c0-4.02,0.08-7.15,0.23-9.39c0.15-2.24,0.62-5.1,1.39-8.58s3.86-10.4,9.27-20.75c1.85-3.56,2.47-5.49,1.85-5.8
		c-1.24-0.31-2.4-0.46-3.48-0.46c-5.1,0-13.06,2.47-23.88,7.42c-8.5,3.86-18.39,9.04-29.68,15.53l-52.86,33.39l29.45,15.77v2.09
		l-14.61,0.23c4.64,3.4,8.35,6.11,11.13,8.12c9.27,6.65,16.62,11.44,22.03,14.38c7.42,3.71,14.92,7.34,22.49,10.9
		c7.26,4.48,11.75,10.51,13.45,18.09c0.46,2.32,0.7,4.71,0.7,7.19c0,2.78-0.23,5.26-0.7,7.42c-0.46,2.16-1.24,5.18-2.32,9.04
		c-1.08,5.87-6.11,11.21-15.07,16c-7.42,4.02-16.31,6.03-26.66,6.03c-4.48,0-9.43-0.46-14.84-1.39c0,2.63-0.08,6.69-0.23,12.17
		c-0.15,5.49-1.7,11.01-4.64,16.58c-1.39,2.94-6.57,7.88-15.53,14.84c-8.97,6.96-18.24,13.14-27.82,18.55
		C202.23,433.59,187.46,438,173.4,438c-11.9,0-20.56-4.87-25.97-14.61c-3.71-6.65-5.56-14.53-5.56-23.65
		c0-5.41,1.08-12.83,3.25-22.26c0.62-3.09,1.7-7.26,3.25-12.52h3.48c-0.77,3.56-1.31,6.41-1.62,8.58
		c-1.24,7.42-1.85,13.29-1.85,17.62c0,2.94,0.23,5.56,0.7,7.88c1.39,6.49,3.79,11.36,7.19,14.61c4.02,3.86,9.58,5.8,16.69,5.8
		c11.59,0,25.04-3.63,40.34-10.9c10.05-4.79,19.79-10.47,29.21-17.04c9.43-6.57,15.3-11.55,17.62-14.96
		c-1.85-7.57-3.86-14.3-6.03-20.17c-3.56-9.58-7.11-16.31-10.67-20.17l7.19-18.09c4.95,8.97,10.67,15.92,17.16,20.87
		c2.16,1.55,4.95,3.17,8.35,4.87c1.39,0.62,3.32,1.16,5.8,1.62c2.47,0.46,5.33,0.7,8.58,0.7c3.09,0,6.18-0.35,9.27-1.04
		S305.71,343.4,308.34,342.01z M536.96,342.24c6.34-4.02,10.51-6.88,12.52-8.58c4.79-3.86,7.88-7.57,9.27-11.13
		c0-1.08-2.32-3.25-6.96-6.49c-1.55-1.08-3.86-2.63-6.96-4.64h-16.46c-4.02,0-7.15-1.7-9.39-5.1c-2.24-3.4-3.36-7.42-3.36-12.06
		c0-7.11,1.82-13.45,5.45-19.01c3.63-5.56,8.31-8.35,14.03-8.35c3.56,0,7.19,1.62,10.9,4.87c3.71,3.25,7.11,7.54,10.2,12.87
		c3.09,5.33,5.18,10.16,6.26,14.49s1.62,10.51,1.62,18.55v2.55c0,3.86-0.19,6.96-0.58,9.27c-0.39,2.32-1.51,5.18-3.36,8.58
		c-1.7,3.86-4.37,7.46-8,10.78c-3.63,3.32-8.31,6.61-14.03,9.85c-2.94,1.7-6.11,3.44-9.51,5.22c-3.4,1.78-9.27,2.67-17.62,2.67
		c-3.4,0-7.96-1.16-13.68-3.48c-0.93-0.31-2.16-0.85-3.71-1.62l-0.23,16.69c-1.7,4.02-3.09,7.19-4.17,9.51
		c-3.4,6.96-6.88,12.37-10.43,16.23c-14.07,14.22-27.2,24.35-39.42,30.37c-10.05,4.95-20.17,7.42-30.37,7.42
		c-4.33,0-8.93-0.58-13.8-1.74c-4.87-1.16-8.85-3.21-11.94-6.14c-3.56-3.4-7.34-9.97-11.36-19.71c-0.62-1.55-1.16-3.75-1.62-6.61
		s-0.7-5.37-0.7-7.54c0-6.18,0.77-12.83,2.32-19.94c0.46-2.47,1.31-5.56,2.55-9.27l4.17-0.23c-0.31,1.85-0.62,3.98-0.93,6.38
		c-0.31,2.4-0.46,5.37-0.46,8.93c0,6.03,0.46,10.7,1.39,14.03s2.43,6.61,4.52,9.85c2.09,3.25,4.68,5.64,7.77,7.19
		s6.22,2.55,9.39,3.01s5.33,0.7,6.49,0.7s2.43,0,3.83,0c10.67,0,22.26-3.4,34.78-10.2c5.1-2.78,12.52-7.73,22.26-14.84
		c3.86-2.78,7.96-6.34,12.29-10.67c4.33-4.33,6.88-6.72,7.65-7.19c-0.77-7.42-2.47-14.26-5.1-20.52
		c-2.63-6.26-6.41-12.87-11.36-19.82l5.8-18.09h1.16c3.86,5.41,7.03,9.51,9.51,12.29c7.57,8.5,14.45,13.6,20.64,15.3
		c3.09,1.08,6.18,1.62,9.27,1.62c3.09,0,6.11-0.5,9.04-1.51S532.94,344.4,536.96,342.24z M194.27,382.35l-10.2,14.61l-16.23-11.82
		l10.2-14.61l13.91,10.2l10.43-14.38l16.23,11.13l-10.2,14.61L194.27,382.35z M233.91,324.62l-3.48,18.78
		c-3.86-1.55-6.8-2.63-8.81-3.25c-6.49-2.16-11.13-3.25-13.91-3.25c-7.73,0-16.93,2.01-27.59,6.03
		c-10.67,4.02-20.64,8.89-29.91,14.61c-5.87,3.56-12.68,8.73-20.4,15.53c-11.28,9.89-20.94,14.84-28.98,14.84
		c-6.49,0-12.48-2.74-17.97-8.23s-8.23-11.79-8.23-18.9c0-12.21,3.71-23.88,11.13-35.01c2.47-3.71,6.26-8.04,11.36-12.98l3.94,0.7
		c-4.02,4.17-7.96,9.89-11.82,17.16c-4.48,8.5-6.72,15.53-6.72,21.1c0,5.1,1.08,9.35,3.25,12.75c2.94,4.64,7.57,6.96,13.91,6.96
		c4.64,0,11.52-3.4,20.64-10.2c7.26-5.72,14.61-11.44,22.03-17.16c12.06-8.04,24.73-14.14,38.03-18.32
		c4.33-1.39,9.74-2.71,16.23-3.94c-2.78-1.85-6.26-2.78-10.43-2.78c-2.32,0-4.41,0.23-6.26,0.7c2.16-3.56,3.71-6.18,4.64-7.88
		c3.25-5.56,4.95-8.42,5.1-8.58c2.32-0.31,4.71-0.62,7.19-0.93c9.58-1.55,16.62-4.48,21.1-8.81l-25.27-40.81l4.64-16.46l9.51,11.13
		l8.58,10.43l-9.27-0.7c1.85,2.01,3.25,3.63,4.17,4.87c3.86,4.48,6.34,7.5,7.42,9.04c1.85,2.78,3.4,7.57,4.64,14.38
		c0.31,2.16,0.77,5.33,1.39,9.51c-0.62,3.09-2.16,6.96-4.64,11.59c-0.31,0.77-0.93,1.85-1.85,3.25c3.25,2.63,5.72,4.64,7.42,6.03
		C229.89,320.29,232.99,323.23,233.91,324.62z M416.85,367.05c-0.93,8.04-5.56,15.69-13.91,22.95c-7.26,6.96-17.7,13.6-31.3,19.94
		c-15.77,7.26-29.45,10.9-41.04,10.9c-15.15,0-27.01-3.25-35.59-9.74s-12.87-14.92-12.87-25.27c0-4.64,0.04-9.12,0.12-13.45
		c0.08-4.33,0.73-9.27,1.97-14.84c0.77-4.48,2.63-10.59,5.56-18.32c0.93-2.47,2.24-5.8,3.94-9.97l4.64-0.46
		c-2.01,4.95-3.48,9.04-4.41,12.29c-3.09,10.2-4.64,18.86-4.64,25.97c0,4.17,0.39,7.84,1.16,11.01c0.77,3.17,2.24,6.07,4.41,8.69
		c4.48,5.41,9.62,9.27,15.42,11.59s12.48,3.48,20.06,3.48c5.26,0,12.68-1.55,22.26-4.64c5.26-1.7,10.74-3.63,16.46-5.8
		c7.11-2.63,16.62-7.42,28.52-14.38c3.86-2.16,8.97-5.26,15.3-9.27l-18.32-38.26l-6.72-13.91l3.25-18.55l22.26,22.03v3.71
		l-9.74-3.71l-1.16,1.85c2.32,3.09,4.1,5.56,5.33,7.42c3.71,5.87,6.18,10.82,7.42,14.84c0.62,2.16,1.08,4.95,1.39,8.35
		c0.31,3.4,0.46,6.49,0.46,9.27c0,1.55,0,2.78,0,3.71S417.01,366.28,416.85,367.05z M339.87,305.84l10.2-14.61l16.23,11.82
		l-10.43,14.61L339.87,305.84z M447.69,396.26h-2.78v-0.93c-0.31-4.17-0.54-8.77-0.7-13.8c-0.15-5.02-0.23-9.85-0.23-14.49
		c0-3.86-0.46-9.12-1.39-15.77c-0.31-2.16-0.77-5.1-1.39-8.81l-14.38-97.15l-1.62-13.22l-3.48-12.52l6.96-18.78l17.39,40.34v2.78
		l-9.04-9.04l-0.46,0.7l0.46,7.88l14.14,97.85c0.31,3.71,0.62,7.77,0.93,12.17c0.31,4.41,0.46,8.54,0.46,12.4
		c0,8.97-0.77,16.62-2.32,22.95C449.78,391.01,448.93,393.48,447.69,396.26z M396.68,175.07c1.7,1.24,3.17,2.16,4.41,2.78
		c7.57,4.17,15.23,6.26,22.95,6.26c7.11,0,12.6-0.46,16.46-1.39c6.34-1.55,12.6-4.56,18.78-9.04l-10.2,20.17h-2.55l2.09-9.04
		c-3.56,1.85-6.41,3.25-8.58,4.17c-6.49,2.94-11.9,4.79-16.23,5.56c-1.55,0.31-3.48,0.54-5.8,0.7c-2.32,0.15-4.56,0.23-6.72,0.23
		c-2.32,0-4.1,0-5.33,0c-1.24,0-2.16-0.08-2.78-0.23l3.94,9.74h-2.09c-0.77-1.08-3.56-3.79-8.35-8.12c-1.7-1.39-4.25-3.56-7.65-6.49
		L396.68,175.07z M492.9,256.45l-10.43,14.61l-16-11.13l10.2-14.38l13.91,9.51l10.43-14.61l16.23,11.82l-10.43,14.61L492.9,256.45z
		 M543.68,293.32c-0.31-0.93-1.78-2.4-4.41-4.41c-3.25-2.47-6.18-3.71-8.81-3.71l-5.8,4.41c0,2.47,1.47,3.71,4.41,3.71H543.68z"/>
</g>
<g id="Layer_3">
	<path class="st6" d="M116.4,230.8c1.08-0.62,2.24-0.93,3.48-0.93c2.01,0,3.94,0.85,5.8,2.55s3.28,3.98,4.29,6.84
		c1,2.86,2.13,6.53,3.36,11.01c0.15,0.77,0.39,1.78,0.7,3.01c0.15-1.7,0.43-3.67,0.81-5.91s1.2-5.06,2.43-8.46
		c1.24-3.4,3.01-6.65,5.33-9.74c2.94-3.86,5.8-5.8,8.58-5.8c1.08,0,2.24,0.39,3.48,1.16c2.47,1.7,4.02,3.56,4.64,5.56
		c0.62,2.16,0.15,4.48-1.39,6.96c-1.55,2.47-4.02,4.95-7.42,7.42c-0.31-2.16-0.54-3.71-0.7-4.64c-0.62-3.25-1.24-4.87-1.85-4.87
		c-0.93,0-2.01,0.54-3.25,1.62c-1.39,1.55-2.4,2.63-3.01,3.25c-2.01,2.63-3.79,7.57-5.33,14.84c-0.46,2.32-1,5.72-1.62,10.2h-2.78
		c-1.24-6.65-2.55-11.75-3.94-15.3c-0.46-1.24-1.16-2.63-2.09-4.17c-0.93,0.31-1.93,0.62-3.01,0.93c-1.08,0.31-2.32,0.46-3.71,0.46
		c-1.7,0-2.94-0.31-3.71-0.93c-2.01-1.39-3.01-3.63-3.01-6.72C112.46,235.44,113.78,232.65,116.4,230.8z M354.52,226.86
		c0.93-0.77,2.16-1.16,3.71-1.16c2.01,0,3.94,0.93,5.8,2.78c1.85,1.85,3.25,4.1,4.17,6.72l4.17,13.45c0.15-1.85,0.43-3.9,0.81-6.14
		c0.39-2.24,1.28-5.22,2.67-8.93c0.93-2.94,2.63-5.87,5.1-8.81c3.09-3.86,6.11-5.8,9.04-5.8c0.93,0,1.85,0.23,2.78,0.7
		c2.47,1.85,4.02,4.02,4.64,6.49c0.46,1.85-0.08,3.71-1.62,5.56c-2.01,2.47-4.41,4.25-7.19,5.33c-0.31-1.39-0.54-2.4-0.7-3.01
		c-0.62-2.01-1.24-3.09-1.85-3.25c-1.08,0-2.16,0.46-3.25,1.39c-0.46,0.46-1.58,1.7-3.36,3.71c-1.78,2.01-3.36,6.8-4.75,14.38
		c-0.46,2.47-1,6.03-1.62,10.67h-2.78c-1.24-6.8-2.63-12.06-4.17-15.77c-0.46-1.24-1.16-2.55-2.09-3.94
		c-0.77,0.31-1.78,0.58-3.01,0.81c-1.24,0.23-2.32,0.35-3.25,0.35c-1.85,0-3.25-0.39-4.17-1.16c-2.01-1.39-3.01-3.63-3.01-6.72
		C350.58,230.8,351.9,228.25,354.52,226.86z M299.34,324.01c4.33-3.09,7.11-5.26,8.35-6.49c2.63-2.63,3.79-4.87,3.48-6.72
		c-0.46-3.4-5.1-7.81-13.91-13.22c-6.65-4.02-15.15-8.5-25.5-13.45c-4.95-2.32-12.13-7.65-21.56-16
		c-3.09-2.63-7.26-6.49-12.52-11.59l-10.9-9.51c-1.08-3.09-1.62-6.34-1.62-9.74c0-4.02,0.62-7.84,1.85-11.48
		c1.24-3.63,2.63-6.22,4.17-7.77c2.94-2.63,9.51-7.57,19.71-14.84c11.13-7.88,21.18-14.68,30.14-20.4
		c17.93-10.82,30.64-17.81,38.14-20.98c7.5-3.17,13.87-4.75,19.13-4.75c1.39,0.15,2.4,0.23,3.01,0.23c3.4,0,6.07,1.12,8,3.36
		c1.93,2.24,2.9,5.06,2.9,8.46c0,0.93-0.15,2.13-0.46,3.59c-0.31,1.47-3.56,6.99-9.74,16.58c-3.25,5.1-5.45,9.58-6.61,13.45
		s-2.2,9.58-3.13,17.16c-0.15,2.32-0.46,5.49-0.93,9.51h-2.09c0-1.08-0.04-2.4-0.12-3.94c-0.08-1.55-0.12-3.56-0.12-6.03
		c0-4.02,0.08-7.15,0.23-9.39c0.15-2.24,0.62-5.1,1.39-8.58s3.86-10.4,9.27-20.75c1.85-3.56,2.47-5.49,1.85-5.8
		c-1.24-0.31-2.4-0.46-3.48-0.46c-5.1,0-13.06,2.47-23.88,7.42c-8.5,3.86-18.39,9.04-29.68,15.53l-52.86,33.39l29.45,15.77v2.09
		l-14.61,0.23c4.64,3.4,8.35,6.11,11.13,8.12c9.27,6.65,16.62,11.44,22.03,14.38c7.42,3.71,14.92,7.34,22.49,10.9
		c7.26,4.48,11.75,10.51,13.45,18.09c0.46,2.32,0.7,4.71,0.7,7.19c0,2.78-0.23,5.26-0.7,7.42c-0.46,2.16-1.24,5.18-2.32,9.04
		c-1.08,5.87-6.11,11.21-15.07,16c-7.42,4.02-16.31,6.03-26.66,6.03c-4.48,0-9.43-0.46-14.84-1.39c0,2.63-0.08,6.69-0.23,12.17
		c-0.15,5.49-1.7,11.01-4.64,16.58c-1.39,2.94-6.57,7.88-15.53,14.84c-8.97,6.96-18.24,13.14-27.82,18.55
		C193.23,415.59,178.46,420,164.4,420c-11.9,0-20.56-4.87-25.97-14.61c-3.71-6.65-5.56-14.53-5.56-23.65
		c0-5.41,1.08-12.83,3.25-22.26c0.62-3.09,1.7-7.26,3.25-12.52h3.48c-0.77,3.56-1.31,6.41-1.62,8.58
		c-1.24,7.42-1.85,13.29-1.85,17.62c0,2.94,0.23,5.56,0.7,7.88c1.39,6.49,3.79,11.36,7.19,14.61c4.02,3.86,9.58,5.8,16.69,5.8
		c11.59,0,25.04-3.63,40.34-10.9c10.05-4.79,19.79-10.47,29.21-17.04c9.43-6.57,15.3-11.55,17.62-14.96
		c-1.85-7.57-3.86-14.3-6.03-20.17c-3.56-9.58-7.11-16.31-10.67-20.17l7.19-18.09c4.95,8.97,10.67,15.92,17.16,20.87
		c2.16,1.55,4.95,3.17,8.35,4.87c1.39,0.62,3.32,1.16,5.8,1.62c2.47,0.46,5.33,0.7,8.58,0.7c3.09,0,6.18-0.35,9.27-1.04
		S296.71,325.4,299.34,324.01z M527.96,324.24c6.34-4.02,10.51-6.88,12.52-8.58c4.79-3.86,7.88-7.57,9.27-11.13
		c0-1.08-2.32-3.25-6.96-6.49c-1.55-1.08-3.86-2.63-6.96-4.64h-16.46c-4.02,0-7.15-1.7-9.39-5.1s-3.36-7.42-3.36-12.06
		c0-7.11,1.82-13.45,5.45-19.01c3.63-5.56,8.31-8.35,14.03-8.35c3.56,0,7.19,1.62,10.9,4.87s7.11,7.54,10.2,12.87
		c3.09,5.33,5.18,10.16,6.26,14.49s1.62,10.51,1.62,18.55v2.55c0,3.86-0.19,6.96-0.58,9.27c-0.39,2.32-1.51,5.18-3.36,8.58
		c-1.7,3.86-4.37,7.46-8,10.78c-3.63,3.32-8.31,6.61-14.03,9.85c-2.94,1.7-6.11,3.44-9.51,5.22c-3.4,1.78-9.27,2.67-17.62,2.67
		c-3.4,0-7.96-1.16-13.68-3.48c-0.93-0.31-2.16-0.85-3.71-1.62l-0.23,16.69c-1.7,4.02-3.09,7.19-4.17,9.51
		c-3.4,6.96-6.88,12.37-10.43,16.23c-14.07,14.22-27.2,24.35-39.42,30.37c-10.05,4.95-20.17,7.42-30.37,7.42
		c-4.33,0-8.93-0.58-13.8-1.74c-4.87-1.16-8.85-3.21-11.94-6.14c-3.56-3.4-7.34-9.97-11.36-19.71c-0.62-1.55-1.16-3.75-1.62-6.61
		s-0.7-5.37-0.7-7.54c0-6.18,0.77-12.83,2.32-19.94c0.46-2.47,1.31-5.56,2.55-9.27l4.17-0.23c-0.31,1.85-0.62,3.98-0.93,6.38
		c-0.31,2.4-0.46,5.37-0.46,8.93c0,6.03,0.46,10.7,1.39,14.03s2.43,6.61,4.52,9.85c2.09,3.25,4.68,5.64,7.77,7.19
		s6.22,2.55,9.39,3.01s5.33,0.7,6.49,0.7s2.43,0,3.83,0c10.67,0,22.26-3.4,34.78-10.2c5.1-2.78,12.52-7.73,22.26-14.84
		c3.86-2.78,7.96-6.34,12.29-10.67c4.33-4.33,6.88-6.72,7.65-7.19c-0.77-7.42-2.47-14.26-5.1-20.52
		c-2.63-6.26-6.41-12.87-11.36-19.82l5.8-18.09h1.16c3.86,5.41,7.03,9.51,9.51,12.29c7.57,8.5,14.45,13.6,20.64,15.3
		c3.09,1.08,6.18,1.62,9.27,1.62s6.11-0.5,9.04-1.51S523.94,326.4,527.96,324.24z M185.27,364.35l-10.2,14.61l-16.23-11.82
		l10.2-14.61l13.91,10.2l10.43-14.38l16.23,11.13l-10.2,14.61L185.27,364.35z M224.91,306.62l-3.48,18.78
		c-3.86-1.55-6.8-2.63-8.81-3.25c-6.49-2.16-11.13-3.25-13.91-3.25c-7.73,0-16.93,2.01-27.59,6.03
		c-10.67,4.02-20.64,8.89-29.91,14.61c-5.87,3.56-12.68,8.73-20.4,15.53c-11.28,9.89-20.94,14.84-28.98,14.84
		c-6.49,0-12.48-2.74-17.97-8.23s-8.23-11.79-8.23-18.9c0-12.21,3.71-23.88,11.13-35.01c2.47-3.71,6.26-8.04,11.36-12.98l3.94,0.7
		c-4.02,4.17-7.96,9.89-11.82,17.16c-4.48,8.5-6.72,15.53-6.72,21.1c0,5.1,1.08,9.35,3.25,12.75c2.94,4.64,7.57,6.96,13.91,6.96
		c4.64,0,11.52-3.4,20.64-10.2c7.26-5.72,14.61-11.44,22.03-17.16c12.06-8.04,24.73-14.14,38.03-18.32
		c4.33-1.39,9.74-2.71,16.23-3.94c-2.78-1.85-6.26-2.78-10.43-2.78c-2.32,0-4.41,0.23-6.26,0.7c2.16-3.56,3.71-6.18,4.64-7.88
		c3.25-5.56,4.95-8.42,5.1-8.58c2.32-0.31,4.71-0.62,7.19-0.93c9.58-1.55,16.62-4.48,21.1-8.81l-25.27-40.81l4.64-16.46l9.51,11.13
		l8.58,10.43l-9.27-0.7c1.85,2.01,3.25,3.63,4.17,4.87c3.86,4.48,6.34,7.5,7.42,9.04c1.85,2.78,3.4,7.57,4.64,14.38
		c0.31,2.16,0.77,5.33,1.39,9.51c-0.62,3.09-2.16,6.96-4.64,11.59c-0.31,0.77-0.93,1.85-1.85,3.25c3.25,2.63,5.72,4.64,7.42,6.03
		C220.89,302.29,223.99,305.23,224.91,306.62z M407.85,349.05c-0.93,8.04-5.56,15.69-13.91,22.95c-7.26,6.96-17.7,13.6-31.3,19.94
		c-15.77,7.26-29.45,10.9-41.04,10.9c-15.15,0-27.01-3.25-35.59-9.74s-12.87-14.92-12.87-25.27c0-4.64,0.04-9.12,0.12-13.45
		c0.08-4.33,0.73-9.27,1.97-14.84c0.77-4.48,2.63-10.59,5.56-18.32c0.93-2.47,2.24-5.8,3.94-9.97l4.64-0.46
		c-2.01,4.95-3.48,9.04-4.41,12.29c-3.09,10.2-4.64,18.86-4.64,25.97c0,4.17,0.39,7.84,1.16,11.01c0.77,3.17,2.24,6.07,4.41,8.69
		c4.48,5.41,9.62,9.27,15.42,11.59s12.48,3.48,20.06,3.48c5.26,0,12.68-1.55,22.26-4.64c5.26-1.7,10.74-3.63,16.46-5.8
		c7.11-2.63,16.62-7.42,28.52-14.38c3.86-2.16,8.97-5.26,15.3-9.27l-18.32-38.26l-6.72-13.91l3.25-18.55l22.26,22.03v3.71
		l-9.74-3.71l-1.16,1.85c2.32,3.09,4.1,5.56,5.33,7.42c3.71,5.87,6.18,10.82,7.42,14.84c0.62,2.16,1.08,4.95,1.39,8.35
		c0.31,3.4,0.46,6.49,0.46,9.27c0,1.55,0,2.78,0,3.71S408.01,348.28,407.85,349.05z M330.87,287.84l10.2-14.61l16.23,11.82
		l-10.43,14.61L330.87,287.84z M438.69,378.26h-2.78v-0.93c-0.31-4.17-0.54-8.77-0.7-13.8c-0.15-5.02-0.23-9.85-0.23-14.49
		c0-3.86-0.46-9.12-1.39-15.77c-0.31-2.16-0.77-5.1-1.39-8.81l-14.38-97.15l-1.62-13.22l-3.48-12.52l6.96-18.78l17.39,40.34v2.78
		l-9.04-9.04l-0.46,0.7l0.46,7.88l14.14,97.85c0.31,3.71,0.62,7.77,0.93,12.17c0.31,4.41,0.46,8.54,0.46,12.4
		c0,8.97-0.77,16.62-2.32,22.95C440.78,373.01,439.93,375.48,438.69,378.26z M387.68,157.07c1.7,1.24,3.17,2.16,4.41,2.78
		c7.57,4.17,15.23,6.26,22.95,6.26c7.11,0,12.6-0.46,16.46-1.39c6.34-1.55,12.6-4.56,18.78-9.04l-10.2,20.17h-2.55l2.09-9.04
		c-3.56,1.85-6.41,3.25-8.58,4.17c-6.49,2.94-11.9,4.79-16.23,5.56c-1.55,0.31-3.48,0.54-5.8,0.7c-2.32,0.15-4.56,0.23-6.72,0.23
		c-2.32,0-4.1,0-5.33,0c-1.24,0-2.16-0.08-2.78-0.23l3.94,9.74h-2.09c-0.77-1.08-3.56-3.79-8.35-8.12c-1.7-1.39-4.25-3.56-7.65-6.49
		L387.68,157.07z M483.9,238.45l-10.43,14.61l-16-11.13l10.2-14.38l13.91,9.51l10.43-14.61l16.23,11.82l-10.43,14.61L483.9,238.45z
		 M534.68,275.32c-0.31-0.93-1.78-2.4-4.41-4.41c-3.25-2.47-6.18-3.71-8.81-3.71l-5.8,4.41c0,2.47,1.47,3.71,4.41,3.71H534.68z"/>
</g>
<g id="Layer_2">
	<g class="st7">
		<path class="st6" d="M243.42,498.6c-1.49,1.83-3.31,3.22-5.46,4.18c-2.15,0.96-4.5,1.44-7.05,1.44c-2.47,0-4.7-0.32-6.7-0.96
			c-2-0.64-4.01-1.69-6.03-3.16c-2.02-1.47-4.29-3.52-6.8-6.16c-3.87-0.64-7.32-2.02-10.34-4.15c-3.02-2.13-5.37-4.81-7.06-8.05
			c-1.68-3.23-2.52-6.79-2.52-10.66c0-4.43,1.07-8.41,3.22-11.94c2.15-3.53,5.11-6.3,8.87-8.3c3.77-2,8.01-3,12.74-3s8.97,1,12.74,3
			c3.77,2,6.72,4.77,8.87,8.3c2.15,3.53,3.22,7.51,3.22,11.94c0,5.02-1.37,9.46-4.12,13.31c-2.75,3.85-6.44,6.61-11.08,8.27
			c0.85,0.94,1.69,1.6,2.52,1.98c0.83,0.38,1.73,0.57,2.71,0.57c2.51,0,4.77-1.04,6.77-3.13L243.42,498.6z M205.81,477.75
			c1.06,1.94,2.51,3.44,4.34,4.5c1.83,1.06,3.87,1.6,6.13,1.6c2.26,0,4.3-0.53,6.13-1.6c1.83-1.06,3.28-2.56,4.34-4.5
			c1.06-1.94,1.6-4.16,1.6-6.67c0-2.51-0.53-4.73-1.6-6.67c-1.06-1.94-2.51-3.44-4.34-4.5c-1.83-1.06-3.87-1.6-6.13-1.6
			c-2.26,0-4.3,0.53-6.13,1.6c-1.83,1.06-3.28,2.56-4.34,4.5c-1.06,1.94-1.6,4.16-1.6,6.67
			C204.22,473.59,204.75,475.82,205.81,477.75z"/>
		<path class="st6" d="M283.58,458.82v34.6h-11.56v-3.7c-1.28,1.4-2.81,2.47-4.6,3.19c-1.79,0.72-3.68,1.09-5.68,1.09
			c-4.47,0-8.03-1.32-10.69-3.96c-2.66-2.64-3.99-6.6-3.99-11.88v-19.35h12.13v17.37c0,2.6,0.49,4.49,1.47,5.68
			c0.98,1.19,2.4,1.79,4.28,1.79c1.92,0,3.48-0.67,4.69-2.01s1.82-3.39,1.82-6.16v-16.66H283.58z"/>
		<path class="st6" d="M307.74,459.43c1.98-0.79,4.25-1.18,6.8-1.18v10.92c-1.11-0.13-2.02-0.19-2.75-0.19c-2.6,0-4.63,0.7-6.1,2.11
			c-1.47,1.4-2.2,3.55-2.2,6.45v15.9h-12.13v-34.6h11.56v4.15C304.16,461.4,305.76,460.22,307.74,459.43z"/>
		<path class="st6" d="M347.17,462.17c3.02,2.62,4.53,6.63,4.53,12.04v19.22h-11.3v-4.47c-1.75,3.36-5.15,5.04-10.22,5.04
			c-2.68,0-5-0.47-6.96-1.4c-1.96-0.94-3.44-2.2-4.44-3.8c-1-1.6-1.5-3.42-1.5-5.46c0-3.28,1.25-5.82,3.77-7.63
			c2.51-1.81,6.38-2.71,11.62-2.71h6.9c-0.21-3.66-2.66-5.49-7.34-5.49c-1.66,0-3.34,0.27-5.04,0.8c-1.7,0.53-3.15,1.27-4.34,2.2
			l-4.09-8.24c1.92-1.28,4.25-2.27,6.99-2.97c2.75-0.7,5.5-1.05,8.27-1.05C339.76,458.25,344.14,459.56,347.17,462.17z
			 M337.27,485.32c1.06-0.68,1.83-1.68,2.3-3v-3h-5.24c-3.53,0-5.3,1.17-5.3,3.51c0,1.06,0.4,1.92,1.21,2.55
			c0.81,0.64,1.92,0.96,3.32,0.96C334.97,486.34,336.21,486,337.27,485.32z"/>
		<path class="st6" d="M392.28,462.08c2.62,2.55,3.93,6.41,3.93,11.56v19.79h-12.13v-17.81c0-4.72-1.89-7.09-5.68-7.09
			c-2.09,0-3.76,0.68-5.01,2.04c-1.26,1.36-1.88,3.41-1.88,6.13v16.73h-12.13v-34.6h11.56v3.77c1.36-1.4,2.98-2.48,4.85-3.22
			c1.87-0.74,3.92-1.12,6.13-1.12C386.2,458.25,389.66,459.52,392.28,462.08z"/>
	</g>
	<path class="st8" d="M415.66,490.92c-4-2.06-7.12-4.91-9.38-8.56c-2.26-3.65-3.38-7.79-3.38-12.42c0-4.57,1.13-8.68,3.38-12.33
		c2.25-3.65,5.37-6.49,9.33-8.52c3.97-2.03,8.46-3.04,13.49-3.04c5.02,0,9.53,1.01,13.53,3.04c3.99,2.03,7.11,4.85,9.33,8.48
		c2.23,3.63,3.34,7.75,3.34,12.37s-1.11,8.76-3.34,12.42c-2.23,3.65-5.34,6.51-9.33,8.56c-4,2.06-8.51,3.08-13.53,3.08
		C424.13,494,419.65,492.97,415.66,490.92z M436.12,478.12c1.83-1.97,2.74-4.69,2.74-8.18c0-3.42-0.91-6.11-2.74-8.05
		c-1.83-1.94-4.17-2.91-7.02-2.91c-2.85,0-5.2,0.97-7.02,2.91c-1.83,1.94-2.74,4.62-2.74,8.05c0,3.48,0.91,6.21,2.74,8.18
		c1.83,1.97,4.17,2.95,7.02,2.95C431.95,481.07,434.29,480.09,436.12,478.12z"/>
	<g class="st9">
		<path class="st6" d="M266.94,532.19c-0.71-0.7-1.07-1.59-1.07-2.66c0-1.1,0.35-2,1.05-2.68c0.7-0.69,1.57-1.03,2.61-1.03
			c1.04,0,1.91,0.34,2.61,1.03c0.7,0.69,1.05,1.58,1.05,2.68c0,1.07-0.36,1.96-1.07,2.66c-0.71,0.7-1.58,1.05-2.59,1.05
			C268.52,533.24,267.66,532.89,266.94,532.19z"/>
		<path class="st6" d="M282.49,531.67c-1.97-1.04-3.5-2.49-4.6-4.36c-1.1-1.86-1.65-3.97-1.65-6.32c0-2.35,0.55-4.45,1.65-6.3
			c1.1-1.85,2.63-3.29,4.58-4.33c1.95-1.04,4.18-1.56,6.68-1.56c2.35,0,4.41,0.48,6.19,1.43c1.77,0.95,3.11,2.32,4,4.11l-4.29,2.5
			c-0.69-1.1-1.54-1.93-2.57-2.48c-1.03-0.55-2.15-0.83-3.37-0.83c-2.09,0-3.81,0.68-5.18,2.03c-1.37,1.36-2.06,3.17-2.06,5.43
			c0,2.26,0.68,4.07,2.03,5.43c1.35,1.36,3.09,2.03,5.2,2.03c1.22,0,2.35-0.28,3.37-0.83c1.03-0.55,1.88-1.38,2.57-2.48l4.29,2.5
			c-0.92,1.79-2.27,3.16-4.04,4.13c-1.77,0.97-3.82,1.45-6.14,1.45C286.67,533.24,284.45,532.71,282.49,531.67z"/>
		<path class="st6" d="M308,531.67c-1.94-1.04-3.45-2.49-4.53-4.36c-1.09-1.86-1.63-3.97-1.63-6.32c0-2.35,0.54-4.45,1.63-6.3
			c1.09-1.85,2.6-3.29,4.53-4.33c1.94-1.04,4.11-1.56,6.52-1.56c2.44,0,4.63,0.52,6.57,1.56c1.94,1.04,3.45,2.49,4.53,4.33
			c1.09,1.85,1.63,3.95,1.63,6.3c0,2.35-0.54,4.46-1.63,6.32c-1.09,1.86-2.6,3.31-4.53,4.36c-1.94,1.04-4.13,1.56-6.57,1.56
			C312.11,533.24,309.93,532.71,308,531.67z M319.61,526.4c1.34-1.37,2.01-3.17,2.01-5.41c0-2.23-0.67-4.04-2.01-5.41
			c-1.34-1.37-3.04-2.06-5.09-2.06c-2.05,0-3.75,0.69-5.07,2.06c-1.33,1.37-1.99,3.17-1.99,5.41c0,2.23,0.66,4.04,1.99,5.41
			c1.32,1.37,3.02,2.05,5.07,2.05C316.58,528.45,318.27,527.77,319.61,526.4z"/>
		<path class="st6" d="M369.88,511.41c1.76,1.74,2.64,4.36,2.64,7.84v13.67h-5.59v-12.96c0-2.08-0.46-3.66-1.38-4.71
			c-0.92-1.06-2.25-1.59-3.98-1.59c-1.88,0-3.38,0.62-4.51,1.85c-1.13,1.24-1.7,3-1.7,5.29v12.11h-5.59v-12.96
			c0-2.08-0.46-3.66-1.39-4.71c-0.92-1.06-2.25-1.59-3.98-1.59c-1.91,0-3.42,0.61-4.54,1.83c-1.12,1.22-1.67,2.99-1.67,5.32v12.11
			h-5.59v-23.86h5.32v3.04c0.89-1.07,2.01-1.89,3.35-2.46c1.34-0.57,2.83-0.85,4.47-0.85c1.79,0,3.37,0.34,4.76,1.01
			c1.39,0.67,2.48,1.66,3.28,2.97c0.98-1.25,2.25-2.23,3.8-2.93c1.55-0.7,3.26-1.05,5.14-1.05
			C365.73,508.8,368.12,509.67,369.88,511.41z"/>
	</g>
</g>
</svg>
