<?xml version="1.0" standalone="no"?>
<!DOCTYPE svg PUBLIC "-//W3C//DTD SVG 20010904//EN"
 "http://www.w3.org/TR/2001/REC-SVG-20010904/DTD/svg10.dtd">
<svg version="1.0" xmlns="http://www.w3.org/2000/svg"
 width="492.000000pt" height="492.000000pt" viewBox="0 0 492.000000 492.000000"
 preserveAspectRatio="xMidYMid meet">
<metadata>
Created by potrace 1.11, written by Peter Selinger 2001-2013
</metadata>
<g transform="translate(0.000000,492.000000) scale(0.100000,-0.100000)"
fill="#000000" stroke="none">
<path d="M1686 4543 c-1 -1 -252 -3 -557 -4 -407 -2 -572 -6 -618 -15 -168
-35 -321 -149 -416 -313 -86 -146 -90 -171 -89 -531 1 -173 5 -488 8 -700 9
-479 14 -768 21 -1260 14 -913 10 -847 57 -970 61 -159 210 -301 368 -351 72
-23 13 -23 2165 -14 479 2 1179 5 1557 6 613 2 686 4 675 18 -6 8 -27 31 -45
50 -112 120 -199 311 -218 476 -32 284 61 551 263 754 29 29 53 55 53 56 0 1
-288 1 -640 0 l-640 -2 0 41 c-1 50 -7 384 -14 851 -4 193 -9 505 -12 695 -10
682 -9 665 -88 834 -89 189 -219 304 -411 363 -56 16 -110 18 -738 18 -373 0
-680 -1 -681 -2z m565 -1380 c3 -60 7 -316 14 -728 4 -236 8 -490 9 -562 3
-129 2 -133 -18 -134 -12 0 -211 -2 -443 -3 l-423 -3 -1 56 c-1 31 -2 126 -4
211 -13 697 -19 1161 -16 1181 1 4 199 7 441 8 l440 2 1 -28z"/>
</g>
</svg>
